<?xml version="1.0" encoding="UTF-8" standalone="no"?>
<!DOCTYPE svg PUBLIC "-//W3C//DTD SVG 1.1//EN"
 "http://www.w3.org/Graphics/SVG/1.1/DTD/svg11.dtd">
<!-- Generated by graphviz version 2.34.0 (20130907.0228)
 -->
<!-- Title: State Pages: 1 -->
<svg width="576pt" height="206pt"
 viewBox="0.00 0.00 576.00 206.18" xmlns="http://www.w3.org/2000/svg" xmlns:xlink="http://www.w3.org/1999/xlink">
<g id="graph0" class="graph" transform="scale(0.409091 0.409091) rotate(0) translate(4 500)">
<title>State</title>
<polygon fill="white" stroke="white" points="-4,4 -4,-500 1404,-500 1404,4 -4,4"/>
<!-- start -->
<g id="node1" class="node"><title>start</title>
<ellipse fill="none" stroke="black" cx="40" cy="-45" rx="36" ry="36"/>
<ellipse fill="none" stroke="black" cx="40" cy="-45" rx="40" ry="40"/>
<text text-anchor="middle" x="40" y="-41.3" font-family="Times,serif" font-size="14.00">start</text>
</g>
<!-- parsejson -->
<g id="node3" class="node"><title>parsejson</title>
<ellipse fill="none" stroke="black" cx="154" cy="-45" rx="36" ry="36"/>
<text text-anchor="middle" x="154" y="-41.3" font-family="Times,serif" font-size="14.00">parsejson</text>
</g>
<!-- start&#45;&gt;parsejson -->
<g id="edge1" class="edge"><title>start&#45;&gt;parsejson</title>
<path fill="none" stroke="black" d="M80.1722,-45C89.0637,-45 98.5791,-45 107.701,-45"/>
<polygon fill="black" stroke="black" points="107.779,-48.5001 117.779,-45 107.779,-41.5001 107.779,-48.5001"/>
</g>
<!-- end -->
<g id="node2" class="node"><title>end</title>
<ellipse fill="none" stroke="black" cx="1360" cy="-78" rx="36" ry="36"/>
<ellipse fill="none" stroke="black" cx="1360" cy="-78" rx="40" ry="40"/>
<text text-anchor="middle" x="1360" y="-74.3" font-family="Times,serif" font-size="14.00">end</text>
</g>
<!-- html -->
<g id="node4" class="node"><title>html</title>
<ellipse fill="none" stroke="black" cx="292" cy="-148" rx="36" ry="36"/>
<text text-anchor="middle" x="292" y="-144.3" font-family="Times,serif" font-size="14.00">html</text>
</g>
<!-- parsejson&#45;&gt;html -->
<g id="edge2" class="edge"><title>parsejson&#45;&gt;html</title>
<path fill="none" stroke="black" d="M183.179,-66.3417C203.967,-82.0856 232.421,-103.635 254.879,-120.644"/>
<polygon fill="black" stroke="black" points="252.772,-123.438 262.857,-126.686 256.998,-117.858 252.772,-123.438"/>
<text text-anchor="middle" x="223" y="-108.8" font-family="Times,serif" font-size="14.00">other</text>
</g>
<!-- rval != 0 -->
<g id="node5" class="node"><title>rval != 0</title>
<ellipse fill="none" stroke="black" cx="1240" cy="-36" rx="36" ry="36"/>
<text text-anchor="middle" x="1240" y="-32.3" font-family="Times,serif" font-size="14.00">rval != 0</text>
</g>
<!-- parsejson&#45;&gt;rval != 0 -->
<g id="edge3" class="edge"><title>parsejson&#45;&gt;rval != 0</title>
<path fill="none" stroke="black" d="M186.185,-28.3715C213.146,-15.5527 253.571,-0 291,-0 291,-0 291,-0 1053,-0 1102.46,-0 1157.98,-12.4196 1195.39,-22.6693"/>
<polygon fill="black" stroke="black" points="1194.86,-26.1573 1205.44,-25.4905 1196.76,-19.4178 1194.86,-26.1573"/>
<text text-anchor="middle" x="584" y="-3.8" font-family="Times,serif" font-size="14.00">21 + (kv pairs * 4) &gt;= UINT_MAX</text>
</g>
<!-- html&#45;&gt;html -->
<g id="edge5" class="edge"><title>html&#45;&gt;html</title>
<path fill="none" stroke="black" d="M279.25,-181.75C279.25,-193 283.5,-202 292,-202 297.711,-202 301.503,-197.937 303.377,-191.859"/>
<polygon fill="black" stroke="black" points="306.872,-192.13 304.75,-181.75 299.936,-191.188 306.872,-192.13"/>
<text text-anchor="middle" x="292" y="-205.8" font-family="Times,serif" font-size="14.00">other</text>
</g>
<!-- html&#45;&gt;rval != 0 -->
<g id="edge7" class="edge"><title>html&#45;&gt;rval != 0</title>
<path fill="none" stroke="black" d="M313.442,-119.044C337.368,-88.8881 380.007,-46 429,-46 429,-46 429,-46 1053,-46 1101.18,-46 1156.28,-42.6128 1193.93,-39.781"/>
<polygon fill="black" stroke="black" points="1194.36,-43.2581 1204.06,-39.0003 1193.82,-36.2788 1194.36,-43.2581"/>
<text text-anchor="middle" x="826" y="-49.8" font-family="Times,serif" font-size="14.00">char in [0 &#45; 8, 11, 12, 14 &#45; 31, 127, 128&#45;159]</text>
</g>
<!-- tagp -->
<g id="node6" class="node"><title>tagp</title>
<ellipse fill="none" stroke="black" cx="430" cy="-218" rx="36" ry="36"/>
<text text-anchor="middle" x="430" y="-214.3" font-family="Times,serif" font-size="14.00">tagp</text>
</g>
<!-- html&#45;&gt;tagp -->
<g id="edge4" class="edge"><title>html&#45;&gt;tagp</title>
<path fill="none" stroke="black" d="M326.04,-159.717C341.552,-165.674 360.085,-173.456 376,-182 381.274,-184.831 386.672,-188.063 391.91,-191.402"/>
<polygon fill="black" stroke="black" points="390.245,-194.496 400.522,-197.07 394.093,-188.649 390.245,-194.496"/>
<text text-anchor="middle" x="361" y="-185.8" font-family="Times,serif" font-size="14.00">&#39;{&#39;</text>
</g>
<!-- rval == 0 -->
<g id="node7" class="node"><title>rval == 0</title>
<ellipse fill="none" stroke="black" cx="584" cy="-97" rx="36" ry="36"/>
<text text-anchor="middle" x="584" y="-93.3" font-family="Times,serif" font-size="14.00">rval == 0</text>
</g>
<!-- html&#45;&gt;rval == 0 -->
<g id="edge6" class="edge"><title>html&#45;&gt;rval == 0</title>
<path fill="none" stroke="black" d="M322.89,-128.904C330.2,-125.018 338.176,-121.391 346,-119 410.613,-99.2521 489.368,-95.7554 537.843,-95.8066"/>
<polygon fill="black" stroke="black" points="537.986,-99.3074 548.008,-95.8701 538.03,-92.3076 537.986,-99.3074"/>
<text text-anchor="middle" x="361" y="-122.8" font-family="Times,serif" font-size="14.00">&#39;0&#39;</text>
</g>
<!-- rval != 0&#45;&gt;end -->
<g id="edge25" class="edge"><title>rval != 0&#45;&gt;end</title>
<path fill="none" stroke="black" d="M1274.18,-47.8111C1286.03,-52.026 1299.6,-56.8561 1312.36,-61.3987"/>
<polygon fill="black" stroke="black" points="1311.32,-64.7455 1321.92,-64.8014 1313.67,-58.1508 1311.32,-64.7455"/>
</g>
<!-- tagp&#45;&gt;html -->
<g id="edge9" class="edge"><title>tagp&#45;&gt;html</title>
<path fill="none" stroke="black" d="M394.059,-213.159C378.666,-210.038 360.764,-205.008 346,-197 338.32,-192.834 330.893,-187.303 324.149,-181.46"/>
<polygon fill="black" stroke="black" points="326.311,-178.694 316.574,-174.519 321.583,-183.855 326.311,-178.694"/>
<text text-anchor="middle" x="361" y="-211.8" font-family="Times,serif" font-size="14.00">other</text>
</g>
<!-- tagpp -->
<g id="node8" class="node"><title>tagpp</title>
<ellipse fill="none" stroke="black" cx="826" cy="-218" rx="36" ry="36"/>
<text text-anchor="middle" x="826" y="-214.3" font-family="Times,serif" font-size="14.00">tagpp</text>
</g>
<!-- tagp&#45;&gt;tagpp -->
<g id="edge8" class="edge"><title>tagp&#45;&gt;tagpp</title>
<path fill="none" stroke="black" d="M466.312,-218C537.985,-218 700.441,-218 779.746,-218"/>
<polygon fill="black" stroke="black" points="779.909,-221.5 789.909,-218 779.909,-214.5 779.909,-221.5"/>
<text text-anchor="middle" x="584" y="-221.8" font-family="Times,serif" font-size="14.00">{</text>
</g>
<!-- rval == 0&#45;&gt;end -->
<g id="edge24" class="edge"><title>rval == 0&#45;&gt;end</title>
<path fill="none" stroke="black" d="M620.05,-97.4427C689.242,-98.2772 848.284,-100 982,-100 982,-100 982,-100 1241,-100 1264.48,-100 1290.14,-95.7394 1311.52,-90.9682"/>
<polygon fill="black" stroke="black" points="1312.39,-94.3597 1321.34,-88.6778 1310.8,-87.543 1312.39,-94.3597"/>
</g>
<!-- rawtag -->
<g id="node9" class="node"><title>rawtag</title>
<ellipse fill="none" stroke="black" cx="1052" cy="-384" rx="36" ry="36"/>
<text text-anchor="middle" x="1052" y="-380.3" font-family="Times,serif" font-size="14.00">rawtag</text>
</g>
<!-- tagpp&#45;&gt;rawtag -->
<g id="edge10" class="edge"><title>tagpp&#45;&gt;rawtag</title>
<path fill="none" stroke="black" d="M855.37,-239.024C895.738,-268.94 969.782,-323.811 1014.29,-356.793"/>
<polygon fill="black" stroke="black" points="1012.39,-359.743 1022.51,-362.885 1016.56,-354.119 1012.39,-359.743"/>
<text text-anchor="middle" x="983" y="-346.8" font-family="Times,serif" font-size="14.00">{</text>
</g>
<!-- tag -->
<g id="node10" class="node"><title>tag</title>
<ellipse fill="none" stroke="black" cx="1052" cy="-213" rx="36" ry="36"/>
<text text-anchor="middle" x="1052" y="-209.3" font-family="Times,serif" font-size="14.00">tag</text>
</g>
<!-- tagpp&#45;&gt;tag -->
<g id="edge11" class="edge"><title>tagpp&#45;&gt;tag</title>
<path fill="none" stroke="black" d="M862,-217.219C900.763,-216.354 963.376,-214.956 1005.82,-214.009"/>
<polygon fill="black" stroke="black" points="1005.96,-217.506 1015.88,-213.784 1005.8,-210.508 1005.96,-217.506"/>
<text text-anchor="middle" x="983" y="-217.8" font-family="Times,serif" font-size="14.00">other</text>
</g>
<!-- rawtag&#45;&gt;rawtag -->
<g id="edge15" class="edge"><title>rawtag&#45;&gt;rawtag</title>
<path fill="none" stroke="black" d="M1039.25,-417.75C1039.25,-429 1043.5,-438 1052,-438 1057.71,-438 1061.5,-433.937 1063.38,-427.859"/>
<polygon fill="black" stroke="black" points="1066.87,-428.13 1064.75,-417.75 1059.94,-427.188 1066.87,-428.13"/>
<text text-anchor="middle" x="1052" y="-441.8" font-family="Times,serif" font-size="14.00">other</text>
</g>
<!-- exitp -->
<g id="node12" class="node"><title>exitp</title>
<ellipse fill="none" stroke="black" cx="1240" cy="-361" rx="36" ry="36"/>
<text text-anchor="middle" x="1240" y="-357.3" font-family="Times,serif" font-size="14.00">exitp</text>
</g>
<!-- rawtag&#45;&gt;exitp -->
<g id="edge14" class="edge"><title>rawtag&#45;&gt;exitp</title>
<path fill="none" stroke="black" d="M1081.4,-363.023C1089.02,-358.497 1097.51,-354.364 1106,-352 1134.83,-343.97 1168.48,-346.351 1194.72,-350.673"/>
<polygon fill="black" stroke="black" points="1194.28,-354.151 1204.74,-352.477 1195.52,-347.261 1194.28,-354.151"/>
<text text-anchor="middle" x="1146" y="-355.8" font-family="Times,serif" font-size="14.00">}</text>
</g>
<!-- tag&#45;&gt;rval != 0 -->
<g id="edge21" class="edge"><title>tag&#45;&gt;rval != 0</title>
<path fill="none" stroke="black" d="M1078.86,-188.389C1112.04,-156.818 1169.62,-102.021 1205.95,-67.4553"/>
<polygon fill="black" stroke="black" points="1208.53,-69.8312 1213.36,-60.4021 1203.7,-64.7603 1208.53,-69.8312"/>
<text text-anchor="middle" x="1146" y="-163.8" font-family="Times,serif" font-size="14.00">tagsz &gt;= 1023</text>
</g>
<!-- tag&#45;&gt;tag -->
<g id="edge22" class="edge"><title>tag&#45;&gt;tag</title>
<path fill="none" stroke="black" d="M1045.64,-248.574C1045.86,-258.957 1047.98,-267 1052,-267 1054.57,-267 1056.37,-263.699 1057.38,-258.597"/>
<polygon fill="black" stroke="black" points="1060.87,-258.866 1058.36,-248.574 1053.91,-258.19 1060.87,-258.866"/>
<text text-anchor="middle" x="1052" y="-270.8" font-family="Times,serif" font-size="14.00">other</text>
</g>
<!-- tag&#45;&gt;tag -->
<g id="edge23" class="edge"><title>tag&#45;&gt;tag</title>
<path fill="none" stroke="black" d="M1039.95,-247.075C1037.49,-266.716 1041.51,-285 1052,-285 1060.61,-285 1064.86,-272.696 1064.75,-257.433"/>
<polygon fill="black" stroke="black" points="1068.21,-256.816 1064.05,-247.075 1061.23,-257.287 1068.21,-256.816"/>
<text text-anchor="middle" x="1052" y="-303.8" font-family="Times,serif" font-size="14.00">&#39;&amp;&#39;, &#39;&quot;&#39;, &#39;&lt;&#39;, &#39;&gt;&#39;</text>
<text text-anchor="middle" x="1052" y="-288.8" font-family="Times,serif" font-size="14.00">(escape these)</text>
</g>
<!-- htmlp -->
<g id="node11" class="node"><title>htmlp</title>
<ellipse fill="none" stroke="black" cx="1240" cy="-219" rx="36" ry="36"/>
<text text-anchor="middle" x="1240" y="-215.3" font-family="Times,serif" font-size="14.00">htmlp</text>
</g>
<!-- tag&#45;&gt;htmlp -->
<g id="edge20" class="edge"><title>tag&#45;&gt;htmlp</title>
<path fill="none" stroke="black" d="M1088.01,-213.465C1114.84,-213.9 1152.77,-214.685 1186,-216 1188.54,-216.1 1191.14,-216.214 1193.77,-216.337"/>
<polygon fill="black" stroke="black" points="1193.78,-219.841 1203.94,-216.847 1194.13,-212.85 1193.78,-219.841"/>
<text text-anchor="middle" x="1146" y="-219.8" font-family="Times,serif" font-size="14.00">&#39;}&#39;</text>
</g>
<!-- htmlp&#45;&gt;html -->
<g id="edge12" class="edge"><title>htmlp&#45;&gt;html</title>
<path fill="none" stroke="black" d="M1218.68,-189.519C1209.89,-179.069 1198.69,-168.341 1186,-162 1132.83,-135.437 1112.44,-148 1053,-148 429,-148 429,-148 429,-148 398.776,-148 364.774,-148 338.328,-148"/>
<polygon fill="black" stroke="black" points="338.223,-144.5 328.223,-148 338.223,-151.5 338.223,-144.5"/>
<text text-anchor="middle" x="826" y="-151.8" font-family="Times,serif" font-size="14.00">&#39;}&#39;</text>
</g>
<!-- htmlp&#45;&gt;tag -->
<g id="edge13" class="edge"><title>htmlp&#45;&gt;tag</title>
<path fill="none" stroke="black" d="M1205.69,-230.668C1199.24,-232.469 1192.47,-234.045 1186,-235 1150.83,-240.194 1140.87,-241.95 1106,-235 1102.1,-234.223 1098.13,-233.153 1094.2,-231.9"/>
<polygon fill="black" stroke="black" points="1095.19,-228.538 1084.59,-228.474 1092.84,-235.131 1095.19,-228.538"/>
<text text-anchor="middle" x="1146" y="-242.8" font-family="Times,serif" font-size="14.00">other</text>
</g>
<!-- exitp&#45;&gt;rawtag -->
<g id="edge17" class="edge"><title>exitp&#45;&gt;rawtag</title>
<path fill="none" stroke="black" d="M1204.17,-365.307C1174.21,-369.011 1130.79,-374.38 1098.17,-378.415"/>
<polygon fill="black" stroke="black" points="1097.48,-374.973 1087.99,-379.674 1098.34,-381.92 1097.48,-374.973"/>
<text text-anchor="middle" x="1146" y="-380.8" font-family="Times,serif" font-size="14.00">other</text>
</g>
<!-- exitpp -->
<g id="node13" class="node"><title>exitpp</title>
<ellipse fill="none" stroke="black" cx="1360" cy="-433" rx="36" ry="36"/>
<text text-anchor="middle" x="1360" y="-429.3" font-family="Times,serif" font-size="14.00">exitpp</text>
</g>
<!-- exitp&#45;&gt;exitpp -->
<g id="edge16" class="edge"><title>exitp&#45;&gt;exitpp</title>
<path fill="none" stroke="black" d="M1271.08,-379.355C1286.06,-388.495 1304.34,-399.651 1320.35,-409.417"/>
<polygon fill="black" stroke="black" points="1318.61,-412.458 1328.97,-414.679 1322.26,-406.482 1318.61,-412.458"/>
<text text-anchor="middle" x="1298" y="-400.8" font-family="Times,serif" font-size="14.00">}</text>
</g>
<!-- exitpp&#45;&gt;html -->
<g id="edge18" class="edge"><title>exitpp&#45;&gt;html</title>
<path fill="none" stroke="black" d="M1329.29,-452.523C1306.2,-465.812 1272.85,-481 1241,-481 429,-481 429,-481 429,-481 367.591,-481 320.269,-284.464 301.633,-193.367"/>
<polygon fill="black" stroke="black" points="305.015,-192.432 299.607,-183.322 298.154,-193.816 305.015,-192.432"/>
<text text-anchor="middle" x="983" y="-484.8" font-family="Times,serif" font-size="14.00">}</text>
</g>
<!-- exitpp&#45;&gt;rawtag -->
<g id="edge19" class="edge"><title>exitpp&#45;&gt;rawtag</title>
<path fill="none" stroke="black" d="M1324.07,-428.762C1275.14,-422.626 1183.46,-410.412 1106,-396 1103.03,-395.448 1099.98,-394.847 1096.91,-394.218"/>
<polygon fill="black" stroke="black" points="1097.64,-390.794 1087.13,-392.136 1096.18,-397.641 1097.64,-390.794"/>
<text text-anchor="middle" x="1240" y="-425.8" font-family="Times,serif" font-size="14.00">other</text>
</g>
</g>
</svg>
