<?xml version="1.0" encoding="UTF-8" standalone="no"?>
<!DOCTYPE svg PUBLIC "-//W3C//DTD SVG 1.1//EN"
 "http://www.w3.org/Graphics/SVG/1.1/DTD/svg11.dtd">
<!-- Generated by graphviz version 2.34.0 (20130907.0228)
 -->
<!-- Title: finite_state_machine Pages: 1 -->
<svg width="576pt" height="174pt"
 viewBox="0.00 0.00 576.00 173.85" xmlns="http://www.w3.org/2000/svg" xmlns:xlink="http://www.w3.org/1999/xlink">
<g id="graph0" class="graph" transform="scale(0.571429 0.571429) rotate(0) translate(4 300.23)">
<title>finite_state_machine</title>
<polygon fill="white" stroke="white" points="-4,4 -4,-300.23 1004,-300.23 1004,4 -4,4"/>
<!-- rval != 0 -->
<g id="node1" class="node"><title>rval != 0</title>
<ellipse fill="none" stroke="black" cx="951" cy="-213.23" rx="45" ry="45"/>
<ellipse fill="none" stroke="black" cx="951" cy="-213.23" rx="49" ry="49"/>
<text text-anchor="middle" x="951" y="-209.53" font-family="Times,serif" font-size="14.00">rval != 0</text>
</g>
<!-- start -->
<g id="node2" class="node"><title>start</title>
<ellipse fill="none" stroke="black" cx="49" cy="-241.23" rx="45" ry="45"/>
<ellipse fill="none" stroke="black" cx="49" cy="-241.23" rx="49" ry="49"/>
<text text-anchor="middle" x="49" y="-237.53" font-family="Times,serif" font-size="14.00">start</text>
</g>
<!-- parsejson -->
<g id="node4" class="node"><title>parsejson</title>
<ellipse fill="none" stroke="black" cx="181" cy="-241.23" rx="45" ry="45"/>
<text text-anchor="middle" x="181" y="-237.53" font-family="Times,serif" font-size="14.00">parsejson</text>
</g>
<!-- start&#45;&gt;parsejson -->
<g id="edge1" class="edge"><title>start&#45;&gt;parsejson</title>
<path fill="none" stroke="black" d="M98.0379,-241.23C106.972,-241.23 116.365,-241.23 125.476,-241.23"/>
<polygon fill="black" stroke="black" points="125.604,-244.73 135.604,-241.23 125.604,-237.73 125.604,-244.73"/>
</g>
<!-- rval == 0 -->
<g id="node3" class="node"><title>rval == 0</title>
<ellipse fill="none" stroke="black" cx="548" cy="-196.23" rx="45" ry="45"/>
<ellipse fill="none" stroke="black" cx="548" cy="-196.23" rx="49" ry="49"/>
<text text-anchor="middle" x="548" y="-192.53" font-family="Times,serif" font-size="14.00">rval == 0</text>
</g>
<!-- parsejson&#45;&gt;rval != 0 -->
<g id="edge3" class="edge"><title>parsejson&#45;&gt;rval != 0</title>
<path fill="none" stroke="black" d="M223.082,-257.962C253.683,-268.923 296.775,-281.23 336,-281.23 336,-281.23 336,-281.23 742,-281.23 797.337,-281.23 857.038,-259.217 898.223,-240.24"/>
<polygon fill="black" stroke="black" points="899.943,-243.299 907.5,-235.873 896.962,-236.966 899.943,-243.299"/>
<text text-anchor="middle" x="548" y="-285.03" font-family="Times,serif" font-size="14.00">21 + (kv pairs * 4) &gt;= UINT_MAX</text>
</g>
<!-- html -->
<g id="node5" class="node"><title>html</title>
<ellipse fill="none" stroke="black" cx="337" cy="-122.23" rx="45" ry="45"/>
<text text-anchor="middle" x="337" y="-118.53" font-family="Times,serif" font-size="14.00">html</text>
</g>
<!-- parsejson&#45;&gt;html -->
<g id="edge2" class="edge"><title>parsejson&#45;&gt;html</title>
<path fill="none" stroke="black" d="M217.331,-213.929C239.731,-196.619 268.865,-174.107 292.66,-155.72"/>
<polygon fill="black" stroke="black" points="295.061,-158.288 300.834,-149.404 290.781,-152.749 295.061,-158.288"/>
<text text-anchor="middle" x="259" y="-197.03" font-family="Times,serif" font-size="14.00">other</text>
</g>
<!-- html&#45;&gt;rval == 0 -->
<g id="edge6" class="edge"><title>html&#45;&gt;rval == 0</title>
<path fill="none" stroke="black" d="M379.542,-136.938C411.75,-148.343 456.681,-164.251 491.894,-176.719"/>
<polygon fill="black" stroke="black" points="490.955,-180.099 501.549,-180.137 493.291,-173.5 490.955,-180.099"/>
<text text-anchor="middle" x="415" y="-159.03" font-family="Times,serif" font-size="14.00">&#39;0&#39;</text>
</g>
<!-- html&#45;&gt;html -->
<g id="edge5" class="edge"><title>html&#45;&gt;html</title>
<path fill="none" stroke="black" d="M322.483,-164.926C323.249,-176.457 328.088,-185.23 337,-185.23 343.127,-185.23 347.329,-181.083 349.606,-174.745"/>
<polygon fill="black" stroke="black" points="353.042,-175.41 351.517,-164.926 346.171,-174.073 353.042,-175.41"/>
<text text-anchor="middle" x="337" y="-189.03" font-family="Times,serif" font-size="14.00">other</text>
</g>
<!-- tagp -->
<g id="node6" class="node"><title>tagp</title>
<ellipse fill="none" stroke="black" cx="548" cy="-84.2299" rx="45" ry="45"/>
<text text-anchor="middle" x="548" y="-80.5299" font-family="Times,serif" font-size="14.00">tagp</text>
</g>
<!-- html&#45;&gt;tagp -->
<g id="edge4" class="edge"><title>html&#45;&gt;tagp</title>
<path fill="none" stroke="black" d="M381.559,-114.31C414.115,-108.391 458.802,-100.266 493.526,-93.9524"/>
<polygon fill="black" stroke="black" points="494.285,-97.372 503.497,-92.1395 493.032,-90.4849 494.285,-97.372"/>
<text text-anchor="middle" x="415" y="-114.03" font-family="Times,serif" font-size="14.00">&#39;{&#39;</text>
</g>
<!-- tagp&#45;&gt;html -->
<g id="edge8" class="edge"><title>tagp&#45;&gt;html</title>
<path fill="none" stroke="black" d="M503.104,-79.5873C473.458,-77.7877 433.73,-77.9978 400,-87.2299 394.635,-88.6983 389.241,-90.732 383.992,-93.0867"/>
<polygon fill="black" stroke="black" points="382.182,-90.0762 374.742,-97.6195 385.262,-96.3621 382.182,-90.0762"/>
<text text-anchor="middle" x="415" y="-91.0299" font-family="Times,serif" font-size="14.00">other</text>
</g>
<!-- tag -->
<g id="node7" class="node"><title>tag</title>
<ellipse fill="none" stroke="black" cx="741" cy="-84.2299" rx="45" ry="45"/>
<text text-anchor="middle" x="741" y="-80.5299" font-family="Times,serif" font-size="14.00">tag</text>
</g>
<!-- tagp&#45;&gt;tag -->
<g id="edge7" class="edge"><title>tagp&#45;&gt;tag</title>
<path fill="none" stroke="black" d="M593.299,-84.2299C620.901,-84.2299 656.605,-84.2299 685.879,-84.2299"/>
<polygon fill="black" stroke="black" points="685.941,-87.73 695.941,-84.2299 685.941,-80.73 685.941,-87.73"/>
<text text-anchor="middle" x="672" y="-88.0299" font-family="Times,serif" font-size="14.00">&#39;{&#39;</text>
</g>
<!-- tag&#45;&gt;rval != 0 -->
<g id="edge12" class="edge"><title>tag&#45;&gt;rval != 0</title>
<path fill="none" stroke="black" d="M779.667,-107.591C813.482,-128.563 863.354,-159.493 900.405,-182.471"/>
<polygon fill="black" stroke="black" points="898.71,-185.539 909.053,-187.835 902.4,-179.59 898.71,-185.539"/>
<text text-anchor="middle" x="844" y="-176.03" font-family="Times,serif" font-size="14.00">tagsz &gt;= 1023</text>
</g>
<!-- tag&#45;&gt;tag -->
<g id="edge13" class="edge"><title>tag&#45;&gt;tag</title>
<path fill="none" stroke="black" d="M728.382,-127.514C729.157,-138.754 733.363,-147.23 741,-147.23 746.131,-147.23 749.713,-143.404 751.747,-137.484"/>
<polygon fill="black" stroke="black" points="755.213,-137.989 753.618,-127.514 748.333,-136.697 755.213,-137.989"/>
<text text-anchor="middle" x="741" y="-151.03" font-family="Times,serif" font-size="14.00">other</text>
</g>
<!-- htmlp -->
<g id="node8" class="node"><title>htmlp</title>
<ellipse fill="none" stroke="black" cx="951" cy="-46.2299" rx="45" ry="45"/>
<text text-anchor="middle" x="951" y="-42.5299" font-family="Times,serif" font-size="14.00">htmlp</text>
</g>
<!-- tag&#45;&gt;htmlp -->
<g id="edge11" class="edge"><title>tag&#45;&gt;htmlp</title>
<path fill="none" stroke="black" d="M785.67,-78.4333C813.841,-74.4555 851.21,-68.7326 884,-62.2299 888.346,-61.3681 892.838,-60.4145 897.34,-59.4147"/>
<polygon fill="black" stroke="black" points="898.189,-62.8108 907.158,-57.1697 896.629,-55.987 898.189,-62.8108"/>
<text text-anchor="middle" x="844" y="-80.0299" font-family="Times,serif" font-size="14.00">&#39;}&#39;</text>
</g>
<!-- htmlp&#45;&gt;html -->
<g id="edge9" class="edge"><title>htmlp&#45;&gt;html</title>
<path fill="none" stroke="black" d="M907.352,-34.5626C818.632,-12.4759 609.056,28.2431 448,-30.2299 419.779,-40.4757 393.737,-61.484 374.082,-80.8413"/>
<polygon fill="black" stroke="black" points="371.401,-78.5757 366.871,-88.1535 376.385,-83.4909 371.401,-78.5757"/>
<text text-anchor="middle" x="672" y="-5.02991" font-family="Times,serif" font-size="14.00">&#39;}&#39;</text>
</g>
<!-- htmlp&#45;&gt;tag -->
<g id="edge10" class="edge"><title>htmlp&#45;&gt;tag</title>
<path fill="none" stroke="black" d="M906.044,-40.594C876.619,-38.2535 837.324,-37.9195 804,-47.2299 798.354,-48.8073 792.702,-51.0431 787.234,-53.6442"/>
<polygon fill="black" stroke="black" points="785.502,-50.5999 778.24,-58.3146 788.728,-56.8122 785.502,-50.5999"/>
<text text-anchor="middle" x="844" y="-51.0299" font-family="Times,serif" font-size="14.00">other</text>
</g>
</g>
</svg>
