<?xml version="1.0" encoding="UTF-8" standalone="no"?>
<!DOCTYPE svg PUBLIC "-//W3C//DTD SVG 1.1//EN"
 "http://www.w3.org/Graphics/SVG/1.1/DTD/svg11.dtd">
<!-- Generated by graphviz version 2.34.0 (20130907.0228)
 -->
<!-- Title: State Pages: 1 -->
<svg width="576pt" height="147pt"
 viewBox="0.00 0.00 576.00 147.08" xmlns="http://www.w3.org/2000/svg" xmlns:xlink="http://www.w3.org/1999/xlink">
<g id="graph0" class="graph" transform="scale(0.474465 0.474465) rotate(0) translate(4 306)">
<title>State</title>
<polygon fill="white" stroke="white" points="-4,4 -4,-306 1210,-306 1210,4 -4,4"/>
<!-- start -->
<g id="node1" class="node"><title>start</title>
<ellipse fill="none" stroke="black" cx="49" cy="-53" rx="45" ry="45"/>
<ellipse fill="none" stroke="black" cx="49" cy="-53" rx="49" ry="49"/>
<text text-anchor="middle" x="49" y="-49.3" font-family="Times,serif" font-size="14.00">start</text>
</g>
<!-- parsejson -->
<g id="node3" class="node"><title>parsejson</title>
<ellipse fill="none" stroke="black" cx="181" cy="-53" rx="45" ry="45"/>
<text text-anchor="middle" x="181" y="-49.3" font-family="Times,serif" font-size="14.00">parsejson</text>
</g>
<!-- start&#45;&gt;parsejson -->
<g id="edge1" class="edge"><title>start&#45;&gt;parsejson</title>
<path fill="none" stroke="black" d="M98.0379,-53C106.972,-53 116.365,-53 125.476,-53"/>
<polygon fill="black" stroke="black" points="125.604,-56.5001 135.604,-53 125.604,-49.5001 125.604,-56.5001"/>
</g>
<!-- end -->
<g id="node2" class="node"><title>end</title>
<ellipse fill="none" stroke="black" cx="1157" cy="-179" rx="45" ry="45"/>
<ellipse fill="none" stroke="black" cx="1157" cy="-179" rx="49" ry="49"/>
<text text-anchor="middle" x="1157" y="-175.3" font-family="Times,serif" font-size="14.00">end</text>
</g>
<!-- html -->
<g id="node4" class="node"><title>html</title>
<ellipse fill="none" stroke="black" cx="337" cy="-143" rx="45" ry="45"/>
<text text-anchor="middle" x="337" y="-139.3" font-family="Times,serif" font-size="14.00">html</text>
</g>
<!-- parsejson&#45;&gt;html -->
<g id="edge2" class="edge"><title>parsejson&#45;&gt;html</title>
<path fill="none" stroke="black" d="M220.463,-75.4786C241.213,-87.6051 266.993,-102.672 288.934,-115.494"/>
<polygon fill="black" stroke="black" points="287.361,-118.628 297.76,-120.652 290.893,-112.585 287.361,-118.628"/>
<text text-anchor="middle" x="259" y="-109.8" font-family="Times,serif" font-size="14.00">other</text>
</g>
<!-- rval != 0 -->
<g id="node5" class="node"><title>rval != 0</title>
<ellipse fill="none" stroke="black" cx="1025" cy="-45" rx="45" ry="45"/>
<text text-anchor="middle" x="1025" y="-41.3" font-family="Times,serif" font-size="14.00">rval != 0</text>
</g>
<!-- parsejson&#45;&gt;rval != 0 -->
<g id="edge3" class="edge"><title>parsejson&#45;&gt;rval != 0</title>
<path fill="none" stroke="black" d="M223.082,-36.2682C253.683,-25.3071 296.775,-13 336,-13 336,-13 336,-13 820,-13 871.831,-13 930.185,-23.2066 971.162,-32.0912"/>
<polygon fill="black" stroke="black" points="970.41,-35.5093 980.93,-34.2554 971.924,-28.6751 970.41,-35.5093"/>
<text text-anchor="middle" x="548" y="-16.8" font-family="Times,serif" font-size="14.00">21 + (kv pairs * 4) &gt;= UINT_MAX</text>
</g>
<!-- html&#45;&gt;html -->
<g id="edge5" class="edge"><title>html&#45;&gt;html</title>
<path fill="none" stroke="black" d="M322.483,-185.696C323.249,-197.227 328.088,-206 337,-206 343.127,-206 347.329,-201.853 349.606,-195.515"/>
<polygon fill="black" stroke="black" points="353.042,-196.18 351.517,-185.696 346.171,-194.843 353.042,-196.18"/>
<text text-anchor="middle" x="337" y="-209.8" font-family="Times,serif" font-size="14.00">other</text>
</g>
<!-- tagp -->
<g id="node6" class="node"><title>tagp</title>
<ellipse fill="none" stroke="black" cx="548" cy="-105" rx="45" ry="45"/>
<text text-anchor="middle" x="548" y="-101.3" font-family="Times,serif" font-size="14.00">tagp</text>
</g>
<!-- html&#45;&gt;tagp -->
<g id="edge4" class="edge"><title>html&#45;&gt;tagp</title>
<path fill="none" stroke="black" d="M374.24,-117.084C382.359,-112.529 391.187,-108.462 400,-106 429.992,-97.6212 464.788,-97.0023 492.996,-98.6496"/>
<polygon fill="black" stroke="black" points="492.85,-102.148 503.069,-99.3489 493.335,-95.1647 492.85,-102.148"/>
<text text-anchor="middle" x="415" y="-109.8" font-family="Times,serif" font-size="14.00">&#39;{&#39;</text>
</g>
<!-- rval == 0 -->
<g id="node7" class="node"><title>rval == 0</title>
<ellipse fill="none" stroke="black" cx="711" cy="-257" rx="45" ry="45"/>
<text text-anchor="middle" x="711" y="-253.3" font-family="Times,serif" font-size="14.00">rval == 0</text>
</g>
<!-- html&#45;&gt;rval == 0 -->
<g id="edge6" class="edge"><title>html&#45;&gt;rval == 0</title>
<path fill="none" stroke="black" d="M365.365,-178.451C375.182,-188.885 387.057,-199.291 400,-206 481.993,-248.502 591.14,-257.092 655.651,-258.036"/>
<polygon fill="black" stroke="black" points="655.967,-261.539 665.997,-258.128 656.029,-254.539 655.967,-261.539"/>
<text text-anchor="middle" x="415" y="-221.8" font-family="Times,serif" font-size="14.00">&#39;0&#39;</text>
</g>
<!-- rval != 0&#45;&gt;end -->
<g id="edge15" class="edge"><title>rval != 0&#45;&gt;end</title>
<path fill="none" stroke="black" d="M1057.14,-77.0963C1074.46,-94.9469 1096.22,-117.384 1114.92,-136.657"/>
<polygon fill="black" stroke="black" points="1112.45,-139.132 1121.92,-143.872 1117.47,-134.258 1112.45,-139.132"/>
</g>
<!-- tagp&#45;&gt;html -->
<g id="edge8" class="edge"><title>tagp&#45;&gt;html</title>
<path fill="none" stroke="black" d="M503.497,-112.91C470.955,-118.826 426.269,-126.951 391.533,-133.267"/>
<polygon fill="black" stroke="black" points="390.771,-129.848 381.559,-135.08 392.024,-136.735 390.771,-129.848"/>
<text text-anchor="middle" x="415" y="-133.8" font-family="Times,serif" font-size="14.00">other</text>
</g>
<!-- tag -->
<g id="node8" class="node"><title>tag</title>
<ellipse fill="none" stroke="black" cx="819" cy="-86" rx="45" ry="45"/>
<text text-anchor="middle" x="819" y="-82.3" font-family="Times,serif" font-size="14.00">tag</text>
</g>
<!-- tagp&#45;&gt;tag -->
<g id="edge7" class="edge"><title>tagp&#45;&gt;tag</title>
<path fill="none" stroke="black" d="M593.119,-101.884C639.833,-98.5843 713.62,-93.3726 763.832,-89.826"/>
<polygon fill="black" stroke="black" points="764.129,-93.3138 773.857,-89.1179 763.635,-86.3312 764.129,-93.3138"/>
<text text-anchor="middle" x="711" y="-99.8" font-family="Times,serif" font-size="14.00">&#39;{&#39;</text>
</g>
<!-- rval == 0&#45;&gt;end -->
<g id="edge14" class="edge"><title>rval == 0&#45;&gt;end</title>
<path fill="none" stroke="black" d="M755.989,-253.37C823.978,-247.196 958.402,-232.749 1070,-207 1080.09,-204.673 1090.68,-201.687 1100.86,-198.536"/>
<polygon fill="black" stroke="black" points="1101.98,-201.851 1110.45,-195.481 1099.86,-195.181 1101.98,-201.851"/>
</g>
<!-- tag&#45;&gt;rval != 0 -->
<g id="edge12" class="edge"><title>tag&#45;&gt;rval != 0</title>
<path fill="none" stroke="black" d="M862.586,-74.5424C869.07,-72.9337 875.699,-71.3656 882,-70 911.068,-63.7005 943.744,-57.8631 970.416,-53.4158"/>
<polygon fill="black" stroke="black" points="971.027,-56.8624 980.324,-51.7814 969.888,-49.9557 971.027,-56.8624"/>
<text text-anchor="middle" x="922" y="-73.8" font-family="Times,serif" font-size="14.00">tagsz &gt;= 1023</text>
</g>
<!-- tag&#45;&gt;tag -->
<g id="edge13" class="edge"><title>tag&#45;&gt;tag</title>
<path fill="none" stroke="black" d="M799.904,-126.901C800.383,-139.304 806.748,-149 819,-149 827.615,-149 833.319,-144.207 836.113,-137.049"/>
<polygon fill="black" stroke="black" points="839.613,-137.386 838.096,-126.901 832.743,-136.044 839.613,-137.386"/>
<text text-anchor="middle" x="819" y="-152.8" font-family="Times,serif" font-size="14.00">other</text>
</g>
<!-- htmlp -->
<g id="node9" class="node"><title>htmlp</title>
<ellipse fill="none" stroke="black" cx="1025" cy="-153" rx="45" ry="45"/>
<text text-anchor="middle" x="1025" y="-149.3" font-family="Times,serif" font-size="14.00">htmlp</text>
</g>
<!-- tag&#45;&gt;htmlp -->
<g id="edge11" class="edge"><title>tag&#45;&gt;htmlp</title>
<path fill="none" stroke="black" d="M864.029,-86.9915C892.847,-88.9553 930.801,-94.0816 962,-107 968.896,-109.855 975.726,-113.645 982.191,-117.828"/>
<polygon fill="black" stroke="black" points="980.534,-120.936 990.755,-123.724 984.503,-115.17 980.534,-120.936"/>
<text text-anchor="middle" x="922" y="-110.8" font-family="Times,serif" font-size="14.00">&#39;}&#39;</text>
</g>
<!-- htmlp&#45;&gt;html -->
<g id="edge9" class="edge"><title>htmlp&#45;&gt;html</title>
<path fill="none" stroke="black" d="M980.74,-162.001C974.471,-163.122 968.083,-164.166 962,-165 918.705,-170.939 907.664,-171.221 864,-173 679.16,-180.532 632.182,-176.305 448,-159 429.524,-157.264 409.407,-154.575 391.489,-151.893"/>
<polygon fill="black" stroke="black" points="391.919,-148.418 381.505,-150.366 390.861,-155.338 391.919,-148.418"/>
<text text-anchor="middle" x="711" y="-179.8" font-family="Times,serif" font-size="14.00">&#39;}&#39;</text>
</g>
<!-- htmlp&#45;&gt;tag -->
<g id="edge10" class="edge"><title>htmlp&#45;&gt;tag</title>
<path fill="none" stroke="black" d="M979.9,-149.037C951.224,-145.4 913.455,-138.579 882,-126 876.146,-123.659 870.251,-120.739 864.548,-117.551"/>
<polygon fill="black" stroke="black" points="866.165,-114.441 855.776,-112.362 862.601,-120.466 866.165,-114.441"/>
<text text-anchor="middle" x="922" y="-149.8" font-family="Times,serif" font-size="14.00">other</text>
</g>
</g>
</svg>
