<?xml version="1.0" encoding="UTF-8" standalone="no"?>
<!DOCTYPE svg PUBLIC "-//W3C//DTD SVG 1.1//EN"
 "http://www.w3.org/Graphics/SVG/1.1/DTD/svg11.dtd">
<!-- Generated by graphviz version 2.34.0 (20130907.0228)
 -->
<!-- Title: State Pages: 1 -->
<svg width="371pt" height="360pt"
 viewBox="0.00 0.00 370.55 360.00" xmlns="http://www.w3.org/2000/svg" xmlns:xlink="http://www.w3.org/1999/xlink">
<g id="graph0" class="graph" transform="scale(0.32967 0.32967) rotate(0) translate(4 1088)">
<title>State</title>
<polygon fill="white" stroke="white" points="-4,4 -4,-1088 1120,-1088 1120,4 -4,4"/>
<!-- current\nsection\nfalsey? -->
<g id="node1" class="node"><title>current\nsection\nfalsey?</title>
<polygon fill="none" stroke="black" points="297,-1080 243,-1026 297,-972 351,-1026 297,-1080"/>
<text text-anchor="middle" x="297" y="-1037.3" font-family="Times,serif" font-size="14.00">current</text>
<text text-anchor="middle" x="297" y="-1022.3" font-family="Times,serif" font-size="14.00">section</text>
<text text-anchor="middle" x="297" y="-1007.3" font-family="Times,serif" font-size="14.00">falsey?</text>
</g>
<!-- html -->
<g id="node4" class="node"><title>html</title>
<ellipse fill="none" stroke="black" cx="297" cy="-858" rx="54" ry="54"/>
<text text-anchor="middle" x="297" y="-854.3" font-family="Times,serif" font-size="14.00">html</text>
</g>
<!-- current\nsection\nfalsey?&#45;&gt;html -->
<g id="edge14" class="edge"><title>current\nsection\nfalsey?&#45;&gt;html</title>
<path fill="none" stroke="black" d="M317.697,-992.334C326.131,-975.269 333.058,-953.853 329,-934 327.819,-928.225 326.176,-922.344 324.252,-916.544"/>
<polygon fill="black" stroke="black" points="327.459,-915.12 320.781,-906.895 320.873,-917.489 327.459,-915.12"/>
<text text-anchor="middle" x="373.5" y="-938.3" font-family="Times,serif" font-size="14.00">no / drop=false</text>
</g>
<!-- current\nsection\nfalsey?&#45;&gt;html -->
<g id="edge15" class="edge"><title>current\nsection\nfalsey?&#45;&gt;html</title>
<path fill="none" stroke="black" d="M270.238,-998.716C258.54,-985.358 246.109,-968.133 240,-950 234.428,-933.46 240.556,-916.846 250.57,-902.425"/>
<polygon fill="black" stroke="black" points="253.562,-904.275 256.857,-894.205 248.002,-900.022 253.562,-904.275"/>
<text text-anchor="middle" x="282.5" y="-938.3" font-family="Times,serif" font-size="14.00">yes / drop=true</text>
</g>
<!-- start -->
<g id="node2" class="node"><title>start</title>
<ellipse fill="none" stroke="black" cx="928" cy="-1026" rx="54" ry="54"/>
<ellipse fill="none" stroke="black" cx="928" cy="-1026" rx="58" ry="58"/>
<text text-anchor="middle" x="928" y="-1022.3" font-family="Times,serif" font-size="14.00">start</text>
</g>
<!-- start&#45;&gt;html -->
<g id="edge1" class="edge"><title>start&#45;&gt;html</title>
<path fill="none" stroke="black" d="M872.003,-1010.27C754.361,-979.32 482.269,-907.74 359.314,-875.393"/>
<polygon fill="black" stroke="black" points="359.866,-871.919 349.305,-872.76 358.085,-878.689 359.866,-871.919"/>
</g>
<!-- end -->
<g id="node3" class="node"><title>end</title>
<ellipse fill="none" stroke="black" cx="1058" cy="-858" rx="54" ry="54"/>
<ellipse fill="none" stroke="black" cx="1058" cy="-858" rx="58" ry="58"/>
<text text-anchor="middle" x="1058" y="-854.3" font-family="Times,serif" font-size="14.00">end</text>
</g>
<!-- html&#45;&gt;html -->
<g id="edge3" class="edge"><title>html&#45;&gt;html</title>
<path fill="none" stroke="black" d="M348.777,-873.365C360.457,-871.981 369,-866.859 369,-858 369,-851.909 364.962,-847.585 358.643,-845.027"/>
<polygon fill="black" stroke="black" points="359.32,-841.59 348.777,-842.635 357.671,-848.393 359.32,-841.59"/>
<text text-anchor="middle" x="383.5" y="-854.3" font-family="Times,serif" font-size="14.00">other</text>
</g>
<!-- tagp -->
<g id="node5" class="node"><title>tagp</title>
<ellipse fill="none" stroke="black" cx="332" cy="-694" rx="54" ry="54"/>
<text text-anchor="middle" x="332" y="-690.3" font-family="Times,serif" font-size="14.00">tagp</text>
</g>
<!-- html&#45;&gt;tagp -->
<g id="edge2" class="edge"><title>html&#45;&gt;tagp</title>
<path fill="none" stroke="black" d="M293.713,-804.083C293.99,-791.476 295.169,-778.156 298,-766 299.152,-761.052 300.687,-756.044 302.468,-751.098"/>
<polygon fill="black" stroke="black" points="305.763,-752.282 306.163,-741.694 299.248,-749.722 305.763,-752.282"/>
<text text-anchor="middle" x="304" y="-770.3" font-family="Times,serif" font-size="14.00">&#39;{&#39;</text>
</g>
<!-- tagp&#45;&gt;html -->
<g id="edge5" class="edge"><title>tagp&#45;&gt;html</title>
<path fill="none" stroke="black" d="M320.754,-747.052C317.477,-762.22 313.863,-778.948 310.464,-794.681"/>
<polygon fill="black" stroke="black" points="306.958,-794.337 308.267,-804.85 313.8,-795.815 306.958,-794.337"/>
<text text-anchor="middle" x="331.5" y="-770.3" font-family="Times,serif" font-size="14.00">other</text>
</g>
<!-- rawtagp -->
<g id="node6" class="node"><title>rawtagp</title>
<ellipse fill="none" stroke="black" cx="333" cy="-534" rx="54" ry="54"/>
<text text-anchor="middle" x="333" y="-530.3" font-family="Times,serif" font-size="14.00">rawtagp</text>
</g>
<!-- tagp&#45;&gt;rawtagp -->
<g id="edge4" class="edge"><title>tagp&#45;&gt;rawtagp</title>
<path fill="none" stroke="black" d="M332.336,-639.949C332.42,-626.661 332.511,-612.271 332.598,-598.532"/>
<polygon fill="black" stroke="black" points="336.1,-598.202 332.663,-588.18 329.1,-598.158 336.1,-598.202"/>
<text text-anchor="middle" x="339" y="-610.3" font-family="Times,serif" font-size="14.00">&#39;{&#39;</text>
</g>
<!-- rawtag -->
<g id="node7" class="node"><title>rawtag</title>
<ellipse fill="none" stroke="black" cx="601" cy="-374" rx="54" ry="54"/>
<text text-anchor="middle" x="601" y="-370.3" font-family="Times,serif" font-size="14.00">rawtag</text>
</g>
<!-- rawtagp&#45;&gt;rawtag -->
<g id="edge6" class="edge"><title>rawtagp&#45;&gt;rawtag</title>
<path fill="none" stroke="black" d="M382.365,-511.553C425.008,-492.141 487.54,-461.522 538,-428 542.958,-424.707 547.969,-421.082 552.886,-417.322"/>
<polygon fill="black" stroke="black" points="555.352,-419.835 561.045,-410.899 551.023,-414.335 555.352,-419.835"/>
<text text-anchor="middle" x="513" y="-450.3" font-family="Times,serif" font-size="14.00">&#39;{&#39;</text>
</g>
<!-- push -->
<g id="node8" class="node"><title>push</title>
<ellipse fill="none" stroke="black" cx="120" cy="-374" rx="54" ry="54"/>
<text text-anchor="middle" x="120" y="-370.3" font-family="Times,serif" font-size="14.00">push</text>
</g>
<!-- rawtagp&#45;&gt;push -->
<g id="edge7" class="edge"><title>rawtagp&#45;&gt;push</title>
<path fill="none" stroke="black" d="M290.738,-499.689C282.256,-493.109 273.376,-486.294 265,-480 234.488,-457.073 199.885,-431.982 172.136,-412.078"/>
<polygon fill="black" stroke="black" points="173.924,-409.053 163.756,-406.075 169.847,-414.744 173.924,-409.053"/>
<text text-anchor="middle" x="244.5" y="-450.3" font-family="Times,serif" font-size="14.00">&#39;#&#39;</text>
</g>
<!-- pop -->
<g id="node9" class="node"><title>pop</title>
<ellipse fill="none" stroke="black" cx="774" cy="-374" rx="54" ry="54"/>
<text text-anchor="middle" x="774" y="-370.3" font-family="Times,serif" font-size="14.00">pop</text>
</g>
<!-- rawtagp&#45;&gt;pop -->
<g id="edge8" class="edge"><title>rawtagp&#45;&gt;pop</title>
<path fill="none" stroke="black" d="M386.385,-525.546C462.109,-513.378 603.455,-484.699 711,-428 716.476,-425.113 721.903,-421.686 727.14,-417.983"/>
<polygon fill="black" stroke="black" points="729.269,-420.762 735.193,-411.978 725.084,-415.15 729.269,-420.762"/>
<text text-anchor="middle" x="677.5" y="-450.3" font-family="Times,serif" font-size="14.00">&#39;/&#39;</text>
</g>
<!-- tag -->
<g id="node10" class="node"><title>tag</title>
<ellipse fill="none" stroke="black" cx="331" cy="-374" rx="54" ry="54"/>
<text text-anchor="middle" x="331" y="-370.3" font-family="Times,serif" font-size="14.00">tag</text>
</g>
<!-- rawtagp&#45;&gt;tag -->
<g id="edge9" class="edge"><title>rawtagp&#45;&gt;tag</title>
<path fill="none" stroke="black" d="M332.328,-479.949C332.16,-466.661 331.978,-452.271 331.804,-438.532"/>
<polygon fill="black" stroke="black" points="335.3,-438.135 331.673,-428.18 328.3,-438.224 335.3,-438.135"/>
<text text-anchor="middle" x="347.5" y="-450.3" font-family="Times,serif" font-size="14.00">other</text>
</g>
<!-- rawtag&#45;&gt;rawtag -->
<g id="edge23" class="edge"><title>rawtag&#45;&gt;rawtag</title>
<path fill="none" stroke="black" d="M653.101,-388.596C664.615,-387.225 673,-382.359 673,-374 673,-368.384 669.215,-364.344 663.238,-361.882"/>
<polygon fill="black" stroke="black" points="663.646,-358.379 653.101,-359.404 661.983,-365.179 663.646,-358.379"/>
<text text-anchor="middle" x="687.5" y="-370.3" font-family="Times,serif" font-size="14.00">other</text>
</g>
<!-- xrawpp -->
<g id="node14" class="node"><title>xrawpp</title>
<ellipse fill="none" stroke="black" cx="535" cy="-214" rx="54" ry="54"/>
<text text-anchor="middle" x="535" y="-210.3" font-family="Times,serif" font-size="14.00">xrawpp</text>
</g>
<!-- rawtag&#45;&gt;xrawpp -->
<g id="edge22" class="edge"><title>rawtag&#45;&gt;xrawpp</title>
<path fill="none" stroke="black" d="M562.848,-335.68C554.602,-325.545 546.897,-314.023 542,-302 538.952,-294.517 536.87,-286.378 535.484,-278.179"/>
<polygon fill="black" stroke="black" points="538.941,-277.624 534.12,-268.189 532.005,-278.571 538.941,-277.624"/>
<text text-anchor="middle" x="548" y="-290.3" font-family="Times,serif" font-size="14.00">&#39;}&#39;</text>
</g>
<!-- push&#45;&gt;push -->
<g id="edge10" class="edge"><title>push&#45;&gt;push</title>
<path fill="none" stroke="black" d="M172.101,-388.596C183.615,-387.225 192,-382.359 192,-374 192,-368.384 188.215,-364.344 182.238,-361.882"/>
<polygon fill="black" stroke="black" points="182.646,-358.379 172.101,-359.404 180.983,-365.179 182.646,-358.379"/>
<text text-anchor="middle" x="206.5" y="-370.3" font-family="Times,serif" font-size="14.00">other</text>
</g>
<!-- xpushp -->
<g id="node11" class="node"><title>xpushp</title>
<ellipse fill="none" stroke="black" cx="120" cy="-214" rx="54" ry="54"/>
<text text-anchor="middle" x="120" y="-210.3" font-family="Times,serif" font-size="14.00">xpushp</text>
</g>
<!-- push&#45;&gt;xpushp -->
<g id="edge11" class="edge"><title>push&#45;&gt;xpushp</title>
<path fill="none" stroke="black" d="M104.651,-322.139C102.595,-310.328 101.611,-297.768 103,-286 103.379,-282.79 103.851,-279.515 104.394,-276.22"/>
<polygon fill="black" stroke="black" points="107.848,-276.787 106.213,-266.32 100.964,-275.522 107.848,-276.787"/>
<text text-anchor="middle" x="109" y="-290.3" font-family="Times,serif" font-size="14.00">&#39;}&#39;</text>
</g>
<!-- pop&#45;&gt;pop -->
<g id="edge16" class="edge"><title>pop&#45;&gt;pop</title>
<path fill="none" stroke="black" d="M826.101,-388.596C837.615,-387.225 846,-382.359 846,-374 846,-368.384 842.215,-364.344 836.238,-361.882"/>
<polygon fill="black" stroke="black" points="836.646,-358.379 826.101,-359.404 834.983,-365.179 836.646,-358.379"/>
<text text-anchor="middle" x="860.5" y="-370.3" font-family="Times,serif" font-size="14.00">other</text>
</g>
<!-- xpopp -->
<g id="node12" class="node"><title>xpopp</title>
<ellipse fill="none" stroke="black" cx="826" cy="-214" rx="54" ry="54"/>
<text text-anchor="middle" x="826" y="-210.3" font-family="Times,serif" font-size="14.00">xpopp</text>
</g>
<!-- pop&#45;&gt;xpopp -->
<g id="edge17" class="edge"><title>pop&#45;&gt;xpopp</title>
<path fill="none" stroke="black" d="M795.647,-324.487C798.641,-317.027 801.531,-309.358 804,-302 806.707,-293.932 809.261,-285.345 811.603,-276.83"/>
<polygon fill="black" stroke="black" points="815.056,-277.465 814.252,-266.9 808.292,-275.66 815.056,-277.465"/>
<text text-anchor="middle" x="815" y="-290.3" font-family="Times,serif" font-size="14.00">&#39;}&#39;</text>
</g>
<!-- tag&#45;&gt;tag -->
<g id="edge29" class="edge"><title>tag&#45;&gt;tag</title>
<path fill="none" stroke="black" d="M384.694,-381.191C395.38,-380.381 403,-377.984 403,-374 403,-371.448 399.873,-369.547 394.815,-368.297"/>
<polygon fill="black" stroke="black" points="395.097,-364.801 384.694,-366.809 394.079,-371.726 395.097,-364.801"/>
<text text-anchor="middle" x="417.5" y="-370.3" font-family="Times,serif" font-size="14.00">other</text>
</g>
<!-- tag&#45;&gt;tag -->
<g id="edge30" class="edge"><title>tag&#45;&gt;tag</title>
<path fill="none" stroke="black" d="M382.974,-388.669C408.589,-390.374 432,-385.484 432,-374 432,-364.041 414.395,-359.041 393.014,-359"/>
<polygon fill="black" stroke="black" points="392.853,-355.504 382.974,-359.331 393.083,-362.5 392.853,-355.504"/>
<text text-anchor="middle" x="471.5" y="-377.8" font-family="Times,serif" font-size="14.00">&#39;&amp;&#39;, &#39;&quot;&#39;, &#39;&lt;&#39;, &#39;&gt;&#39;</text>
<text text-anchor="middle" x="471.5" y="-362.8" font-family="Times,serif" font-size="14.00">(escape these)</text>
</g>
<!-- xtagp -->
<g id="node13" class="node"><title>xtagp</title>
<ellipse fill="none" stroke="black" cx="282" cy="-214" rx="54" ry="54"/>
<text text-anchor="middle" x="282" y="-210.3" font-family="Times,serif" font-size="14.00">xtagp</text>
</g>
<!-- tag&#45;&gt;xtagp -->
<g id="edge28" class="edge"><title>tag&#45;&gt;xtagp</title>
<path fill="none" stroke="black" d="M321.198,-320.6C318.592,-309.095 315.508,-297.052 312,-286 310.642,-281.723 309.126,-277.349 307.515,-272.976"/>
<polygon fill="black" stroke="black" points="310.709,-271.529 303.864,-263.442 304.172,-274.033 310.709,-271.529"/>
<text text-anchor="middle" x="323" y="-290.3" font-family="Times,serif" font-size="14.00">&#39;}&#39;</text>
</g>
<!-- xpushp&#45;&gt;current\nsection\nfalsey? -->
<g id="edge12" class="edge"><title>xpushp&#45;&gt;current\nsection\nfalsey?</title>
<path fill="none" stroke="black" d="M76.3378,-246.402C42.0268,-275.061 0,-320.816 0,-373 0,-859 0,-859 0,-859 0,-967.242 152.173,-1005.58 238.669,-1018.63"/>
<polygon fill="black" stroke="black" points="238.224,-1022.1 248.621,-1020.06 239.222,-1015.17 238.224,-1022.1"/>
<text text-anchor="middle" x="6" y="-610.3" font-family="Times,serif" font-size="14.00">&#39;}&#39;</text>
</g>
<!-- xpushp&#45;&gt;push -->
<g id="edge13" class="edge"><title>xpushp&#45;&gt;push</title>
<path fill="none" stroke="black" d="M120,-268.18C120,-281.475 120,-295.866 120,-309.602"/>
<polygon fill="black" stroke="black" points="116.5,-309.949 120,-319.949 123.5,-309.949 116.5,-309.949"/>
<text text-anchor="middle" x="134.5" y="-290.3" font-family="Times,serif" font-size="14.00">other</text>
</g>
<!-- xpopp&#45;&gt;current\nsection\nfalsey? -->
<g id="edge18" class="edge"><title>xpopp&#45;&gt;current\nsection\nfalsey?</title>
<path fill="none" stroke="black" d="M859.325,-256.935C880.136,-287.34 903,-330.432 903,-373 903,-859 903,-859 903,-859 903,-971.366 510.539,-1010.38 357.285,-1021.34"/>
<polygon fill="black" stroke="black" points="356.839,-1017.86 347.107,-1022.05 357.327,-1024.84 356.839,-1017.86"/>
<text text-anchor="middle" x="909" y="-610.3" font-family="Times,serif" font-size="14.00">&#39;}&#39;</text>
</g>
<!-- xpopp&#45;&gt;pop -->
<g id="edge19" class="edge"><title>xpopp&#45;&gt;pop</title>
<path fill="none" stroke="black" d="M788.915,-253.553C781.579,-263.406 774.936,-274.493 771,-286 768.357,-293.726 766.964,-302.067 766.41,-310.418"/>
<polygon fill="black" stroke="black" points="762.907,-310.474 766.123,-320.569 769.904,-310.672 762.907,-310.474"/>
<text text-anchor="middle" x="785.5" y="-290.3" font-family="Times,serif" font-size="14.00">other</text>
</g>
<!-- xtagp&#45;&gt;html -->
<g id="edge20" class="edge"><title>xtagp&#45;&gt;html</title>
<path fill="none" stroke="black" d="M265.887,-265.674C257.51,-296.396 249,-336.571 249,-373 249,-695 249,-695 249,-695 249,-730.468 259.708,-768.572 271.009,-798.909"/>
<polygon fill="black" stroke="black" points="267.831,-800.395 274.686,-808.472 274.364,-797.882 267.831,-800.395"/>
<text text-anchor="middle" x="255" y="-530.3" font-family="Times,serif" font-size="14.00">&#39;}&#39;</text>
</g>
<!-- xtagp&#45;&gt;tag -->
<g id="edge21" class="edge"><title>xtagp&#45;&gt;tag</title>
<path fill="none" stroke="black" d="M277.741,-268.217C278.174,-279.561 279.665,-291.331 283,-302 285.198,-309.03 288.34,-315.995 291.979,-322.659"/>
<polygon fill="black" stroke="black" points="289.117,-324.696 297.209,-331.536 295.149,-321.143 289.117,-324.696"/>
<text text-anchor="middle" x="297.5" y="-290.3" font-family="Times,serif" font-size="14.00">other</text>
</g>
<!-- xrawpp&#45;&gt;rawtag -->
<g id="edge25" class="edge"><title>xrawpp&#45;&gt;rawtag</title>
<path fill="none" stroke="black" d="M555.508,-264.096C562.15,-279.996 569.584,-297.792 576.486,-314.316"/>
<polygon fill="black" stroke="black" points="573.395,-315.996 580.479,-323.874 579.854,-313.298 573.395,-315.996"/>
<text text-anchor="middle" x="584.5" y="-290.3" font-family="Times,serif" font-size="14.00">other</text>
</g>
<!-- xrawp -->
<g id="node15" class="node"><title>xrawp</title>
<ellipse fill="none" stroke="black" cx="535" cy="-54" rx="54" ry="54"/>
<text text-anchor="middle" x="535" y="-50.3" font-family="Times,serif" font-size="14.00">xrawp</text>
</g>
<!-- xrawpp&#45;&gt;xrawp -->
<g id="edge24" class="edge"><title>xrawpp&#45;&gt;xrawp</title>
<path fill="none" stroke="black" d="M535,-159.949C535,-146.661 535,-132.271 535,-118.532"/>
<polygon fill="black" stroke="black" points="538.5,-118.18 535,-108.18 531.5,-118.18 538.5,-118.18"/>
<text text-anchor="middle" x="541" y="-130.3" font-family="Times,serif" font-size="14.00">&#39;}&#39;</text>
</g>
<!-- xrawp&#45;&gt;html -->
<g id="edge26" class="edge"><title>xrawp&#45;&gt;html</title>
<path fill="none" stroke="black" d="M480.972,-60.3077C369.66,-72.262 119.921,-104.658 57,-160 38.2104,-176.526 38,-187.977 38,-213 38,-695 38,-695 38,-695 38,-786.998 156.913,-828.701 233.591,-846.029"/>
<polygon fill="black" stroke="black" points="233.133,-849.511 243.649,-848.218 234.622,-842.671 233.133,-849.511"/>
<text text-anchor="middle" x="44" y="-450.3" font-family="Times,serif" font-size="14.00">&#39;}&#39;</text>
</g>
<!-- xrawp&#45;&gt;rawtag -->
<g id="edge27" class="edge"><title>xrawp&#45;&gt;rawtag</title>
<path fill="none" stroke="black" d="M567.239,-97.6451C579.195,-115.874 591.434,-138 598,-160 612.59,-208.884 612.328,-266.93 608.983,-310.071"/>
<polygon fill="black" stroke="black" points="605.486,-309.887 608.125,-320.147 612.461,-310.48 605.486,-309.887"/>
<text text-anchor="middle" x="625.5" y="-210.3" font-family="Times,serif" font-size="14.00">other</text>
</g>
<!-- allnodes -->
<g id="node16" class="node"><title>allnodes</title>
<ellipse fill="none" stroke="black" cx="1058" cy="-1026" rx="54" ry="54"/>
<text text-anchor="middle" x="1058" y="-1022.3" font-family="Times,serif" font-size="14.00">allnodes</text>
</g>
<!-- allnodes&#45;&gt;end -->
<g id="edge31" class="edge"><title>allnodes&#45;&gt;end</title>
<path fill="none" stroke="black" d="M1058,-971.563C1058,-957.162 1058,-941.396 1058,-926.343"/>
<polygon fill="black" stroke="black" points="1061.5,-926.061 1058,-916.061 1054.5,-926.061 1061.5,-926.061"/>
<text text-anchor="middle" x="1085" y="-938.3" font-family="Times,serif" font-size="14.00">char == 0</text>
</g>
</g>
</svg>
