<?xml version="1.0" encoding="UTF-8" standalone="no"?>
<!DOCTYPE svg PUBLIC "-//W3C//DTD SVG 1.1//EN"
 "http://www.w3.org/Graphics/SVG/1.1/DTD/svg11.dtd">
<!-- Generated by graphviz version 2.34.0 (20130907.0228)
 -->
<!-- Title: State Pages: 1 -->
<svg width="294pt" height="360pt"
 viewBox="0.00 0.00 294.44 360.00" xmlns="http://www.w3.org/2000/svg" xmlns:xlink="http://www.w3.org/1999/xlink">
<g id="graph0" class="graph" transform="scale(0.378947 0.378947) rotate(0) translate(4 946)">
<title>State</title>
<polygon fill="white" stroke="white" points="-4,4 -4,-946 773,-946 773,4 -4,4"/>
<!-- start -->
<g id="node1" class="node"><title>start</title>
<ellipse fill="none" stroke="black" cx="417" cy="-902" rx="36" ry="36"/>
<ellipse fill="none" stroke="black" cx="417" cy="-902" rx="40" ry="40"/>
<text text-anchor="middle" x="417" y="-898.3" font-family="Times,serif" font-size="14.00">start</text>
</g>
<!-- parsejson -->
<g id="node3" class="node"><title>parsejson</title>
<ellipse fill="none" stroke="black" cx="417" cy="-788" rx="36" ry="36"/>
<text text-anchor="middle" x="417" y="-784.3" font-family="Times,serif" font-size="14.00">parsejson</text>
</g>
<!-- start&#45;&gt;parsejson -->
<g id="edge1" class="edge"><title>start&#45;&gt;parsejson</title>
<path fill="none" stroke="black" d="M417,-861.828C417,-852.936 417,-843.421 417,-834.299"/>
<polygon fill="black" stroke="black" points="420.5,-834.221 417,-824.221 413.5,-834.221 420.5,-834.221"/>
</g>
<!-- end -->
<g id="node2" class="node"><title>end</title>
<ellipse fill="none" stroke="black" cx="535" cy="-40" rx="36" ry="36"/>
<ellipse fill="none" stroke="black" cx="535" cy="-40" rx="40" ry="40"/>
<text text-anchor="middle" x="535" y="-36.3" font-family="Times,serif" font-size="14.00">end</text>
</g>
<!-- html -->
<g id="node4" class="node"><title>html</title>
<ellipse fill="none" stroke="black" cx="338" cy="-664" rx="36" ry="36"/>
<text text-anchor="middle" x="338" y="-660.3" font-family="Times,serif" font-size="14.00">html</text>
</g>
<!-- parsejson&#45;&gt;html -->
<g id="edge2" class="edge"><title>parsejson&#45;&gt;html</title>
<path fill="none" stroke="black" d="M397.876,-757.467C387.377,-741.253 374.233,-720.954 362.936,-703.509"/>
<polygon fill="black" stroke="black" points="365.595,-701.175 357.221,-694.684 359.719,-704.98 365.595,-701.175"/>
<text text-anchor="middle" x="396.5" y="-722.3" font-family="Times,serif" font-size="14.00">other</text>
</g>
<!-- rval != 0 -->
<g id="node5" class="node"><title>rval != 0</title>
<ellipse fill="none" stroke="black" cx="487" cy="-168" rx="36" ry="36"/>
<text text-anchor="middle" x="487" y="-164.3" font-family="Times,serif" font-size="14.00">rval != 0</text>
</g>
<!-- parsejson&#45;&gt;rval != 0 -->
<g id="edge3" class="edge"><title>parsejson&#45;&gt;rval != 0</title>
<path fill="none" stroke="black" stroke-dasharray="5,2" d="M433.676,-755.854C445.027,-731.756 458,-697.176 458,-665 458,-665 458,-665 458,-291 458,-264.165 464.723,-234.889 471.695,-211.743"/>
<polygon fill="black" stroke="black" points="475.13,-212.487 474.785,-201.898 468.451,-210.39 475.13,-212.487"/>
<text text-anchor="middle" x="558" y="-474.3" font-family="Times,serif" font-size="14.00">21 + (kv pairs * 4) &gt;= UINT_MAX</text>
</g>
<!-- html&#45;&gt;html -->
<g id="edge5" class="edge"><title>html&#45;&gt;html</title>
<path fill="none" stroke="black" d="M372.276,-675.622C383.279,-675.503 392,-671.629 392,-664 392,-658.994 388.244,-655.604 382.552,-653.832"/>
<polygon fill="black" stroke="black" points="382.667,-650.313 372.276,-652.378 381.687,-657.244 382.667,-650.313"/>
<text text-anchor="middle" x="406.5" y="-660.3" font-family="Times,serif" font-size="14.00">other</text>
</g>
<!-- tagp -->
<g id="node6" class="node"><title>tagp</title>
<ellipse fill="none" stroke="black" cx="303" cy="-540" rx="36" ry="36"/>
<text text-anchor="middle" x="303" y="-536.3" font-family="Times,serif" font-size="14.00">tagp</text>
</g>
<!-- html&#45;&gt;tagp -->
<g id="edge4" class="edge"><title>html&#45;&gt;tagp</title>
<path fill="none" stroke="black" d="M316.165,-635.282C311.218,-627.522 306.647,-618.793 304,-610 301.717,-602.418 300.547,-594.152 300.066,-586.06"/>
<polygon fill="black" stroke="black" points="303.562,-585.87 299.794,-575.968 296.565,-586.059 303.562,-585.87"/>
<text text-anchor="middle" x="310" y="-598.3" font-family="Times,serif" font-size="14.00">&#39;{&#39;</text>
</g>
<!-- rval != 0&#45;&gt;end -->
<g id="edge25" class="edge"><title>rval != 0&#45;&gt;end</title>
<path fill="none" stroke="black" d="M499.486,-134.224C504.961,-119.853 511.483,-102.731 517.436,-87.1067"/>
<polygon fill="black" stroke="black" points="520.764,-88.2006 521.053,-77.6097 514.223,-85.7086 520.764,-88.2006"/>
</g>
<!-- tagp&#45;&gt;html -->
<g id="edge7" class="edge"><title>tagp&#45;&gt;html</title>
<path fill="none" stroke="black" d="M312.697,-574.802C316.636,-588.53 321.237,-604.569 325.428,-619.177"/>
<polygon fill="black" stroke="black" points="322.129,-620.369 328.251,-629.016 328.857,-618.439 322.129,-620.369"/>
<text text-anchor="middle" x="337.5" y="-598.3" font-family="Times,serif" font-size="14.00">other</text>
</g>
<!-- rawtagp -->
<g id="node7" class="node"><title>rawtagp</title>
<ellipse fill="none" stroke="black" cx="301" cy="-416" rx="36" ry="36"/>
<text text-anchor="middle" x="301" y="-412.3" font-family="Times,serif" font-size="14.00">rawtagp</text>
</g>
<!-- tagp&#45;&gt;rawtagp -->
<g id="edge6" class="edge"><title>tagp&#45;&gt;rawtagp</title>
<path fill="none" stroke="black" d="M302.422,-503.713C302.21,-490.814 301.968,-476.039 301.744,-462.383"/>
<polygon fill="black" stroke="black" points="305.241,-462.149 301.577,-452.208 298.242,-462.264 305.241,-462.149"/>
<text text-anchor="middle" x="306.5" y="-474.3" font-family="Times,serif" font-size="14.00">{</text>
</g>
<!-- rawtag -->
<g id="node8" class="node"><title>rawtag</title>
<ellipse fill="none" stroke="black" cx="301" cy="-292" rx="36" ry="36"/>
<text text-anchor="middle" x="301" y="-288.3" font-family="Times,serif" font-size="14.00">rawtag</text>
</g>
<!-- rawtagp&#45;&gt;rawtag -->
<g id="edge8" class="edge"><title>rawtagp&#45;&gt;rawtag</title>
<path fill="none" stroke="black" d="M301,-379.713C301,-366.814 301,-352.039 301,-338.383"/>
<polygon fill="black" stroke="black" points="304.5,-338.208 301,-328.208 297.5,-338.208 304.5,-338.208"/>
<text text-anchor="middle" x="304.5" y="-350.3" font-family="Times,serif" font-size="14.00">{</text>
</g>
<!-- tag -->
<g id="node9" class="node"><title>tag</title>
<ellipse fill="none" stroke="black" cx="67" cy="-292" rx="36" ry="36"/>
<text text-anchor="middle" x="67" y="-288.3" font-family="Times,serif" font-size="14.00">tag</text>
</g>
<!-- rawtagp&#45;&gt;tag -->
<g id="edge9" class="edge"><title>rawtagp&#45;&gt;tag</title>
<path fill="none" stroke="black" d="M269.442,-398.547C227.66,-376.763 153.913,-338.314 107.901,-314.324"/>
<polygon fill="black" stroke="black" points="109.291,-311.102 98.8056,-309.582 106.055,-317.309 109.291,-311.102"/>
<text text-anchor="middle" x="213.5" y="-350.3" font-family="Times,serif" font-size="14.00">other</text>
</g>
<!-- rawtag&#45;&gt;rawtag -->
<g id="edge13" class="edge"><title>rawtag&#45;&gt;rawtag</title>
<path fill="none" stroke="black" d="M335.276,-303.622C346.279,-303.503 355,-299.629 355,-292 355,-286.994 351.244,-283.604 345.552,-281.832"/>
<polygon fill="black" stroke="black" points="345.667,-278.313 335.276,-280.378 344.687,-285.244 345.667,-278.313"/>
<text text-anchor="middle" x="369.5" y="-288.3" font-family="Times,serif" font-size="14.00">other</text>
</g>
<!-- xrawpp -->
<g id="node11" class="node"><title>xrawpp</title>
<ellipse fill="none" stroke="black" cx="220" cy="-168" rx="36" ry="36"/>
<text text-anchor="middle" x="220" y="-164.3" font-family="Times,serif" font-size="14.00">xrawpp</text>
</g>
<!-- rawtag&#45;&gt;xrawpp -->
<g id="edge12" class="edge"><title>rawtag&#45;&gt;xrawpp</title>
<path fill="none" stroke="black" d="M281.392,-261.467C270.528,-245.104 256.903,-224.582 245.249,-207.03"/>
<polygon fill="black" stroke="black" points="248.155,-205.079 239.708,-198.684 242.323,-208.951 248.155,-205.079"/>
<text text-anchor="middle" x="269.5" y="-226.3" font-family="Times,serif" font-size="14.00">}</text>
</g>
<!-- tag&#45;&gt;rval != 0 -->
<g id="edge19" class="edge"><title>tag&#45;&gt;rval != 0</title>
<path fill="none" stroke="black" stroke-dasharray="5,2" d="M102.13,-282.931C143.999,-273.131 215.969,-255.704 277,-238 335.006,-221.173 401.06,-198.957 443.343,-184.338"/>
<polygon fill="black" stroke="black" points="444.737,-187.559 453.038,-180.975 442.443,-180.946 444.737,-187.559"/>
<text text-anchor="middle" x="369" y="-226.3" font-family="Times,serif" font-size="14.00">tagsz &gt;= 1023</text>
</g>
<!-- tag&#45;&gt;tag -->
<g id="edge20" class="edge"><title>tag&#45;&gt;tag</title>
<path fill="none" stroke="black" d="M102.574,-297.795C112.957,-297.595 121,-295.663 121,-292 121,-289.653 117.699,-288.017 112.597,-287.092"/>
<polygon fill="black" stroke="black" points="112.844,-283.6 102.574,-286.205 112.227,-290.573 112.844,-283.6"/>
<text text-anchor="middle" x="135.5" y="-288.3" font-family="Times,serif" font-size="14.00">other</text>
</g>
<!-- tag&#45;&gt;tag -->
<g id="edge21" class="edge"><title>tag&#45;&gt;tag</title>
<path fill="none" stroke="black" d="M101.639,-302.654C125.49,-305.541 150,-301.99 150,-292 150,-283.415 131.899,-279.585 111.67,-280.51"/>
<polygon fill="black" stroke="black" points="111.314,-277.028 101.639,-281.346 111.895,-284.003 111.314,-277.028"/>
<text text-anchor="middle" x="189.5" y="-295.8" font-family="Times,serif" font-size="14.00">&#39;&amp;&#39;, &#39;&quot;&#39;, &#39;&lt;&#39;, &#39;&gt;&#39;</text>
<text text-anchor="middle" x="189.5" y="-280.8" font-family="Times,serif" font-size="14.00">(escape these)</text>
</g>
<!-- xtagp -->
<g id="node10" class="node"><title>xtagp</title>
<ellipse fill="none" stroke="black" cx="36" cy="-168" rx="36" ry="36"/>
<text text-anchor="middle" x="36" y="-164.3" font-family="Times,serif" font-size="14.00">xtagp</text>
</g>
<!-- tag&#45;&gt;xtagp -->
<g id="edge18" class="edge"><title>tag&#45;&gt;xtagp</title>
<path fill="none" stroke="black" d="M45.5452,-262.952C40.8111,-255.262 36.4729,-246.65 34,-238 31.8228,-230.384 30.9032,-222.102 30.7368,-214.004"/>
<polygon fill="black" stroke="black" points="34.2378,-213.963 30.891,-203.911 27.2386,-213.856 34.2378,-213.963"/>
<text text-anchor="middle" x="40" y="-226.3" font-family="Times,serif" font-size="14.00">&#39;}&#39;</text>
</g>
<!-- xtagp&#45;&gt;html -->
<g id="edge10" class="edge"><title>xtagp&#45;&gt;html</title>
<path fill="none" stroke="black" d="M22.1962,-201.496C13.1534,-225.714 3,-259.843 3,-291 3,-541 3,-541 3,-541 3,-601.866 200.717,-641.216 292.361,-656.187"/>
<polygon fill="black" stroke="black" points="292.038,-659.68 302.466,-657.809 293.147,-652.768 292.038,-659.68"/>
<text text-anchor="middle" x="9" y="-412.3" font-family="Times,serif" font-size="14.00">&#39;}&#39;</text>
</g>
<!-- xtagp&#45;&gt;tag -->
<g id="edge11" class="edge"><title>xtagp&#45;&gt;tag</title>
<path fill="none" stroke="black" d="M44.6964,-203.225C48.1675,-216.885 52.2065,-232.781 55.8862,-247.262"/>
<polygon fill="black" stroke="black" points="52.5098,-248.186 58.3648,-257.016 59.2942,-246.462 52.5098,-248.186"/>
<text text-anchor="middle" x="68.5" y="-226.3" font-family="Times,serif" font-size="14.00">other</text>
</g>
<!-- xrawpp&#45;&gt;rawtag -->
<g id="edge15" class="edge"><title>xrawpp&#45;&gt;rawtag</title>
<path fill="none" stroke="black" d="M214.915,-203.658C214.849,-215.325 216.72,-227.927 223,-238 231.838,-252.177 242.027,-246.842 256,-256 259.078,-258.018 262.212,-260.188 265.32,-262.423"/>
<polygon fill="black" stroke="black" points="263.312,-265.292 273.43,-268.434 267.48,-259.668 263.312,-265.292"/>
<text text-anchor="middle" x="237.5" y="-226.3" font-family="Times,serif" font-size="14.00">other</text>
</g>
<!-- xrawp -->
<g id="node12" class="node"><title>xrawp</title>
<ellipse fill="none" stroke="black" cx="292" cy="-40" rx="36" ry="36"/>
<text text-anchor="middle" x="292" y="-36.3" font-family="Times,serif" font-size="14.00">xrawp</text>
</g>
<!-- xrawpp&#45;&gt;xrawp -->
<g id="edge14" class="edge"><title>xrawpp&#45;&gt;xrawp</title>
<path fill="none" stroke="black" d="M237.429,-136.499C246.998,-119.753 258.978,-98.789 269.273,-80.772"/>
<polygon fill="black" stroke="black" points="272.559,-82.0759 274.482,-71.6569 266.481,-78.6029 272.559,-82.0759"/>
<text text-anchor="middle" x="262.5" y="-102.3" font-family="Times,serif" font-size="14.00">}</text>
</g>
<!-- xrawp&#45;&gt;html -->
<g id="edge16" class="edge"><title>xrawp&#45;&gt;html</title>
<path fill="none" stroke="black" d="M324.631,-55.6417C362.554,-75.1481 420,-113.522 420,-167 420,-541 420,-541 420,-541 420,-576.997 395.105,-610.365 372.749,-633.072"/>
<polygon fill="black" stroke="black" points="370.007,-630.858 365.305,-640.352 374.901,-635.862 370.007,-630.858"/>
<text text-anchor="middle" x="423.5" y="-350.3" font-family="Times,serif" font-size="14.00">}</text>
</g>
<!-- xrawp&#45;&gt;rawtag -->
<g id="edge17" class="edge"><title>xrawp&#45;&gt;rawtag</title>
<path fill="none" stroke="black" d="M293.267,-76.1906C294.865,-120.59 297.617,-197.016 299.37,-245.725"/>
<polygon fill="black" stroke="black" points="295.882,-246.108 299.739,-255.975 302.877,-245.856 295.882,-246.108"/>
<text text-anchor="middle" x="312.5" y="-164.3" font-family="Times,serif" font-size="14.00">other</text>
</g>
<!-- allnodes -->
<g id="node13" class="node"><title>allnodes</title>
<ellipse fill="none" stroke="black" cx="628" cy="-292" rx="36" ry="36"/>
<text text-anchor="middle" x="628" y="-288.3" font-family="Times,serif" font-size="14.00">allnodes</text>
</g>
<!-- allnodes&#45;&gt;rval != 0 -->
<g id="edge22" class="edge"><title>allnodes&#45;&gt;rval != 0</title>
<path fill="none" stroke="black" stroke-dasharray="5,2" d="M591.895,-288.339C558.778,-283.77 511.431,-271.404 488,-238 483.006,-230.88 480.763,-222.25 480.114,-213.538"/>
<polygon fill="black" stroke="black" points="483.612,-213.325 480.014,-203.36 476.613,-213.394 483.612,-213.325"/>
<text text-anchor="middle" x="598" y="-226.3" font-family="Times,serif" font-size="14.00">char in [1 &#45; 8, 11, 12, 14 &#45; 31, 127&#45;159]</text>
</g>
<!-- rval == 0 -->
<g id="node14" class="node"><title>rval == 0</title>
<ellipse fill="none" stroke="black" cx="655" cy="-168" rx="36" ry="36"/>
<text text-anchor="middle" x="655" y="-164.3" font-family="Times,serif" font-size="14.00">rval == 0</text>
</g>
<!-- allnodes&#45;&gt;rval == 0 -->
<g id="edge23" class="edge"><title>allnodes&#45;&gt;rval == 0</title>
<path fill="none" stroke="black" d="M662.006,-278.996C680.342,-270.578 701.342,-257.328 712,-238 720.945,-221.779 709.197,-205.702 694.089,-193.152"/>
<polygon fill="black" stroke="black" points="696.04,-190.237 685.974,-186.929 691.78,-195.792 696.04,-190.237"/>
<text text-anchor="middle" x="742" y="-226.3" font-family="Times,serif" font-size="14.00">char == 0</text>
</g>
<!-- rval == 0&#45;&gt;end -->
<g id="edge24" class="edge"><title>rval == 0&#45;&gt;end</title>
<path fill="none" stroke="black" d="M630.427,-141.198C612.839,-122.73 588.923,-97.6191 569.434,-77.1557"/>
<polygon fill="black" stroke="black" points="571.905,-74.6753 562.474,-69.8477 566.836,-79.5029 571.905,-74.6753"/>
</g>
</g>
</svg>
