<?xml version="1.0" encoding="UTF-8" standalone="no"?>
<!DOCTYPE svg PUBLIC "-//W3C//DTD SVG 1.1//EN"
 "http://www.w3.org/Graphics/SVG/1.1/DTD/svg11.dtd">
<!-- Generated by graphviz version 2.34.0 (20130907.0228)
 -->
<!-- Title: State Pages: 1 -->
<svg width="576pt" height="165pt"
 viewBox="0.00 0.00 576.00 165.11" xmlns="http://www.w3.org/2000/svg" xmlns:xlink="http://www.w3.org/1999/xlink">
<g id="graph0" class="graph" transform="scale(0.474465 0.474465) rotate(0) translate(4 344)">
<title>State</title>
<polygon fill="white" stroke="white" points="-4,4 -4,-344 1210,-344 1210,4 -4,4"/>
<!-- start -->
<g id="node1" class="node"><title>start</title>
<ellipse fill="none" stroke="black" cx="49" cy="-49" rx="45" ry="45"/>
<ellipse fill="none" stroke="black" cx="49" cy="-49" rx="49" ry="49"/>
<text text-anchor="middle" x="49" y="-45.3" font-family="Times,serif" font-size="14.00">start</text>
</g>
<!-- parsejson -->
<g id="node3" class="node"><title>parsejson</title>
<ellipse fill="none" stroke="black" cx="181" cy="-49" rx="45" ry="45"/>
<text text-anchor="middle" x="181" y="-45.3" font-family="Times,serif" font-size="14.00">parsejson</text>
</g>
<!-- start&#45;&gt;parsejson -->
<g id="edge1" class="edge"><title>start&#45;&gt;parsejson</title>
<path fill="none" stroke="black" d="M98.0379,-49C106.972,-49 116.365,-49 125.476,-49"/>
<polygon fill="black" stroke="black" points="125.604,-52.5001 135.604,-49 125.604,-45.5001 125.604,-52.5001"/>
</g>
<!-- end -->
<g id="node2" class="node"><title>end</title>
<ellipse fill="none" stroke="black" cx="1157" cy="-216" rx="45" ry="45"/>
<ellipse fill="none" stroke="black" cx="1157" cy="-216" rx="49" ry="49"/>
<text text-anchor="middle" x="1157" y="-212.3" font-family="Times,serif" font-size="14.00">end</text>
</g>
<!-- html -->
<g id="node4" class="node"><title>html</title>
<ellipse fill="none" stroke="black" cx="337" cy="-157" rx="45" ry="45"/>
<text text-anchor="middle" x="337" y="-153.3" font-family="Times,serif" font-size="14.00">html</text>
</g>
<!-- parsejson&#45;&gt;html -->
<g id="edge2" class="edge"><title>parsejson&#45;&gt;html</title>
<path fill="none" stroke="black" d="M218.496,-74.5945C240.36,-89.9276 268.314,-109.532 291.472,-125.772"/>
<polygon fill="black" stroke="black" points="289.569,-128.713 299.766,-131.589 293.588,-122.982 289.569,-128.713"/>
<text text-anchor="middle" x="259" y="-115.8" font-family="Times,serif" font-size="14.00">other</text>
</g>
<!-- rval != 0 -->
<g id="node5" class="node"><title>rval != 0</title>
<ellipse fill="none" stroke="black" cx="1025" cy="-48" rx="45" ry="45"/>
<text text-anchor="middle" x="1025" y="-44.3" font-family="Times,serif" font-size="14.00">rval != 0</text>
</g>
<!-- parsejson&#45;&gt;rval != 0 -->
<g id="edge3" class="edge"><title>parsejson&#45;&gt;rval != 0</title>
<path fill="none" stroke="black" d="M221.884,-30.1573C252.419,-17.4538 295.959,-3 336,-3 336,-3 336,-3 820,-3 872.939,-3 931.829,-17.6295 972.674,-30.2057"/>
<polygon fill="black" stroke="black" points="971.806,-33.6018 982.396,-33.2653 973.907,-26.9247 971.806,-33.6018"/>
<text text-anchor="middle" x="548" y="-6.8" font-family="Times,serif" font-size="14.00">21 + (kv pairs * 4) &gt;= UINT_MAX</text>
</g>
<!-- html&#45;&gt;html -->
<g id="edge5" class="edge"><title>html&#45;&gt;html</title>
<path fill="none" stroke="black" d="M322.483,-199.696C323.249,-211.227 328.088,-220 337,-220 343.127,-220 347.329,-215.853 349.606,-209.515"/>
<polygon fill="black" stroke="black" points="353.042,-210.18 351.517,-199.696 346.171,-208.843 353.042,-210.18"/>
<text text-anchor="middle" x="337" y="-223.8" font-family="Times,serif" font-size="14.00">other</text>
</g>
<!-- tagp -->
<g id="node6" class="node"><title>tagp</title>
<ellipse fill="none" stroke="black" cx="548" cy="-119" rx="45" ry="45"/>
<text text-anchor="middle" x="548" y="-115.3" font-family="Times,serif" font-size="14.00">tagp</text>
</g>
<!-- html&#45;&gt;tagp -->
<g id="edge4" class="edge"><title>html&#45;&gt;tagp</title>
<path fill="none" stroke="black" d="M374.24,-131.084C382.359,-126.529 391.187,-122.462 400,-120 429.992,-111.621 464.788,-111.002 492.996,-112.65"/>
<polygon fill="black" stroke="black" points="492.85,-116.148 503.069,-113.349 493.335,-109.165 492.85,-116.148"/>
<text text-anchor="middle" x="415" y="-123.8" font-family="Times,serif" font-size="14.00">&#39;{&#39;</text>
</g>
<!-- rval == 0 -->
<g id="node7" class="node"><title>rval == 0</title>
<ellipse fill="none" stroke="black" cx="711" cy="-295" rx="45" ry="45"/>
<text text-anchor="middle" x="711" y="-291.3" font-family="Times,serif" font-size="14.00">rval == 0</text>
</g>
<!-- html&#45;&gt;rval == 0 -->
<g id="edge6" class="edge"><title>html&#45;&gt;rval == 0</title>
<path fill="none" stroke="black" d="M357.503,-197.285C367.799,-214.341 382.056,-232.816 400,-244 478.978,-293.224 590.386,-299.488 655.911,-298.191"/>
<polygon fill="black" stroke="black" points="656.118,-301.687 666.022,-297.923 655.933,-294.689 656.118,-301.687"/>
<text text-anchor="middle" x="415" y="-261.8" font-family="Times,serif" font-size="14.00">&#39;0&#39;</text>
</g>
<!-- rval != 0&#45;&gt;end -->
<g id="edge16" class="edge"><title>rval != 0&#45;&gt;end</title>
<path fill="none" stroke="black" d="M1054.36,-82.414C1059.6,-88.8868 1065,-95.6241 1070,-102 1087.08,-123.787 1105.63,-148.259 1121.11,-168.929"/>
<polygon fill="black" stroke="black" points="1118.31,-171.03 1127.1,-176.944 1123.92,-166.839 1118.31,-171.03"/>
</g>
<!-- tagp&#45;&gt;html -->
<g id="edge8" class="edge"><title>tagp&#45;&gt;html</title>
<path fill="none" stroke="black" d="M503.497,-126.91C470.955,-132.826 426.269,-140.951 391.533,-147.267"/>
<polygon fill="black" stroke="black" points="390.771,-143.848 381.559,-149.08 392.024,-150.735 390.771,-143.848"/>
<text text-anchor="middle" x="415" y="-147.8" font-family="Times,serif" font-size="14.00">other</text>
</g>
<!-- tag -->
<g id="node8" class="node"><title>tag</title>
<ellipse fill="none" stroke="black" cx="819" cy="-76" rx="45" ry="45"/>
<text text-anchor="middle" x="819" y="-72.3" font-family="Times,serif" font-size="14.00">tag</text>
</g>
<!-- tagp&#45;&gt;tag -->
<g id="edge7" class="edge"><title>tagp&#45;&gt;tag</title>
<path fill="none" stroke="black" d="M592.518,-112.044C639.26,-104.572 713.6,-92.6884 764.031,-84.6269"/>
<polygon fill="black" stroke="black" points="764.775,-88.0526 774.097,-83.0179 763.67,-81.1403 764.775,-88.0526"/>
<text text-anchor="middle" x="711" y="-103.8" font-family="Times,serif" font-size="14.00">&#39;{&#39;</text>
</g>
<!-- rval == 0&#45;&gt;end -->
<g id="edge15" class="edge"><title>rval == 0&#45;&gt;end</title>
<path fill="none" stroke="black" d="M755.381,-287.281C835.853,-272.963 1008.25,-242.29 1098.39,-226.25"/>
<polygon fill="black" stroke="black" points="1099.2,-229.661 1108.44,-224.463 1097.98,-222.769 1099.2,-229.661"/>
</g>
<!-- tag&#45;&gt;rval != 0 -->
<g id="edge12" class="edge"><title>tag&#45;&gt;rval != 0</title>
<path fill="none" stroke="black" d="M863.763,-69.9933C894.956,-65.7119 937.077,-59.9307 970.305,-55.37"/>
<polygon fill="black" stroke="black" points="970.878,-58.8241 980.309,-53.9968 969.926,-51.8892 970.878,-58.8241"/>
<text text-anchor="middle" x="922" y="-69.8" font-family="Times,serif" font-size="14.00">tagsz &gt;= 1023</text>
</g>
<!-- tag&#45;&gt;tag -->
<g id="edge13" class="edge"><title>tag&#45;&gt;tag</title>
<path fill="none" stroke="black" d="M809.587,-120.158C810.284,-130.961 813.422,-139 819,-139 822.661,-139 825.27,-135.538 826.829,-130.105"/>
<polygon fill="black" stroke="black" points="830.297,-130.585 828.413,-120.158 823.384,-129.483 830.297,-130.585"/>
<text text-anchor="middle" x="819" y="-142.8" font-family="Times,serif" font-size="14.00">other</text>
</g>
<!-- tag&#45;&gt;tag -->
<g id="edge14" class="edge"><title>tag&#45;&gt;tag</title>
<path fill="none" stroke="black" d="M800.493,-117.26C797.79,-138.213 803.959,-157 819,-157 831.573,-157 837.947,-143.871 838.121,-127.324"/>
<polygon fill="black" stroke="black" points="841.61,-127.028 837.507,-117.26 834.623,-127.455 841.61,-127.028"/>
<text text-anchor="middle" x="819" y="-175.8" font-family="Times,serif" font-size="14.00">&#39;&amp;&#39;, &#39;&quot;&#39;, &#39;&lt;&#39;, &#39;&gt;&#39;</text>
<text text-anchor="middle" x="819" y="-160.8" font-family="Times,serif" font-size="14.00">(escape these)</text>
</g>
<!-- htmlp -->
<g id="node9" class="node"><title>htmlp</title>
<ellipse fill="none" stroke="black" cx="1025" cy="-156" rx="45" ry="45"/>
<text text-anchor="middle" x="1025" y="-152.3" font-family="Times,serif" font-size="14.00">htmlp</text>
</g>
<!-- tag&#45;&gt;htmlp -->
<g id="edge11" class="edge"><title>tag&#45;&gt;htmlp</title>
<path fill="none" stroke="black" d="M863.759,-81.7972C892.636,-86.7352 930.759,-95.4196 962,-110 968.68,-113.118 975.351,-117.019 981.71,-121.223"/>
<polygon fill="black" stroke="black" points="979.949,-124.262 990.157,-127.099 983.946,-118.516 979.949,-124.262"/>
<text text-anchor="middle" x="922" y="-113.8" font-family="Times,serif" font-size="14.00">&#39;}&#39;</text>
</g>
<!-- htmlp&#45;&gt;html -->
<g id="edge9" class="edge"><title>htmlp&#45;&gt;html</title>
<path fill="none" stroke="black" d="M983.537,-174.095C951.76,-187.269 906.009,-203.981 864,-211 691.899,-239.754 485.391,-196.041 390.443,-171.62"/>
<polygon fill="black" stroke="black" points="391.075,-168.168 380.516,-169.032 389.309,-174.941 391.075,-168.168"/>
<text text-anchor="middle" x="711" y="-223.8" font-family="Times,serif" font-size="14.00">&#39;}&#39;</text>
</g>
<!-- htmlp&#45;&gt;tag -->
<g id="edge10" class="edge"><title>htmlp&#45;&gt;tag</title>
<path fill="none" stroke="black" d="M979.928,-153.501C950.92,-150.468 912.766,-143.771 882,-129 874.017,-125.168 866.235,-120.045 859.032,-114.492"/>
<polygon fill="black" stroke="black" points="860.825,-111.437 850.865,-107.826 856.399,-116.86 860.825,-111.437"/>
<text text-anchor="middle" x="922" y="-154.8" font-family="Times,serif" font-size="14.00">other</text>
</g>
</g>
</svg>
