<?xml version="1.0" encoding="UTF-8" standalone="no"?>
<!DOCTYPE svg PUBLIC "-//W3C//DTD SVG 1.1//EN"
 "http://www.w3.org/Graphics/SVG/1.1/DTD/svg11.dtd">
<!-- Generated by graphviz version 2.34.0 (20130907.0228)
 -->
<!-- Title: State Pages: 1 -->
<svg width="384pt" height="360pt"
 viewBox="0.00 0.00 383.77 360.00" xmlns="http://www.w3.org/2000/svg" xmlns:xlink="http://www.w3.org/1999/xlink">
<g id="graph0" class="graph" transform="scale(0.339623 0.339623) rotate(0) translate(4 1056)">
<title>State</title>
<polygon fill="white" stroke="white" points="-4,4 -4,-1056 1126,-1056 1126,4 -4,4"/>
<!-- start -->
<g id="node1" class="node"><title>start</title>
<ellipse fill="none" stroke="black" cx="837" cy="-1012" rx="36" ry="36"/>
<ellipse fill="none" stroke="black" cx="837" cy="-1012" rx="40" ry="40"/>
<text text-anchor="middle" x="837" y="-1008.3" font-family="Times,serif" font-size="14.00">start</text>
</g>
<!-- parsejson -->
<g id="node3" class="node"><title>parsejson</title>
<ellipse fill="none" stroke="black" cx="837" cy="-898" rx="36" ry="36"/>
<text text-anchor="middle" x="837" y="-894.3" font-family="Times,serif" font-size="14.00">parsejson</text>
</g>
<!-- start&#45;&gt;parsejson -->
<g id="edge1" class="edge"><title>start&#45;&gt;parsejson</title>
<path fill="none" stroke="black" d="M837,-971.828C837,-962.936 837,-953.421 837,-944.299"/>
<polygon fill="black" stroke="black" points="840.5,-944.221 837,-934.221 833.5,-944.221 840.5,-944.221"/>
</g>
<!-- end -->
<g id="node2" class="node"><title>end</title>
<ellipse fill="none" stroke="black" cx="570" cy="-40" rx="36" ry="36"/>
<ellipse fill="none" stroke="black" cx="570" cy="-40" rx="40" ry="40"/>
<text text-anchor="middle" x="570" y="-36.3" font-family="Times,serif" font-size="14.00">end</text>
</g>
<!-- html -->
<g id="node4" class="node"><title>html</title>
<ellipse fill="none" stroke="black" cx="625" cy="-774" rx="36" ry="36"/>
<text text-anchor="middle" x="625" y="-770.3" font-family="Times,serif" font-size="14.00">html</text>
</g>
<!-- parsejson&#45;&gt;html -->
<g id="edge2" class="edge"><title>parsejson&#45;&gt;html</title>
<path fill="none" stroke="black" d="M806.173,-879.26C768.806,-857.756 705.759,-821.475 664.766,-797.884"/>
<polygon fill="black" stroke="black" points="666.277,-794.716 655.864,-792.761 662.785,-800.783 666.277,-794.716"/>
<text text-anchor="middle" x="757.5" y="-832.3" font-family="Times,serif" font-size="14.00">other</text>
</g>
<!-- rval != 0 -->
<g id="node5" class="node"><title>rval != 0</title>
<ellipse fill="none" stroke="black" cx="659" cy="-154" rx="36" ry="36"/>
<text text-anchor="middle" x="659" y="-150.3" font-family="Times,serif" font-size="14.00">rval != 0</text>
</g>
<!-- parsejson&#45;&gt;rval != 0 -->
<g id="edge3" class="edge"><title>parsejson&#45;&gt;rval != 0</title>
<path fill="none" stroke="black" stroke-dasharray="5,2" d="M864.832,-874.984C889.622,-852.7 922,-815.787 922,-775 922,-775 922,-775 922,-277 922,-182.538 780.656,-161.009 705.205,-156.246"/>
<polygon fill="black" stroke="black" points="705.197,-152.74 695.018,-155.679 704.808,-159.729 705.197,-152.74"/>
<text text-anchor="middle" x="1022" y="-522.3" font-family="Times,serif" font-size="14.00">21 + (kv pairs * 4) &gt;= UINT_MAX</text>
</g>
<!-- html&#45;&gt;html -->
<g id="edge5" class="edge"><title>html&#45;&gt;html</title>
<path fill="none" stroke="black" d="M659.276,-785.622C670.279,-785.503 679,-781.629 679,-774 679,-768.994 675.244,-765.604 669.552,-763.832"/>
<polygon fill="black" stroke="black" points="669.667,-760.313 659.276,-762.378 668.687,-767.244 669.667,-760.313"/>
<text text-anchor="middle" x="693.5" y="-770.3" font-family="Times,serif" font-size="14.00">other</text>
</g>
<!-- tagp -->
<g id="node6" class="node"><title>tagp</title>
<ellipse fill="none" stroke="black" cx="590" cy="-650" rx="36" ry="36"/>
<text text-anchor="middle" x="590" y="-646.3" font-family="Times,serif" font-size="14.00">tagp</text>
</g>
<!-- html&#45;&gt;tagp -->
<g id="edge4" class="edge"><title>html&#45;&gt;tagp</title>
<path fill="none" stroke="black" d="M603.165,-745.282C598.218,-737.522 593.647,-728.793 591,-720 588.717,-712.418 587.547,-704.152 587.066,-696.06"/>
<polygon fill="black" stroke="black" points="590.562,-695.87 586.794,-685.968 583.565,-696.059 590.562,-695.87"/>
<text text-anchor="middle" x="597" y="-708.3" font-family="Times,serif" font-size="14.00">&#39;{&#39;</text>
</g>
<!-- rval != 0&#45;&gt;end -->
<g id="edge39" class="edge"><title>rval != 0&#45;&gt;end</title>
<path fill="none" stroke="black" d="M637,-125.315C626.142,-111.65 612.858,-94.9342 600.991,-80"/>
<polygon fill="black" stroke="black" points="603.53,-77.5689 594.568,-71.9172 598.049,-81.9238 603.53,-77.5689"/>
</g>
<!-- tagp&#45;&gt;html -->
<g id="edge7" class="edge"><title>tagp&#45;&gt;html</title>
<path fill="none" stroke="black" d="M599.697,-684.802C603.636,-698.53 608.237,-714.569 612.428,-729.177"/>
<polygon fill="black" stroke="black" points="609.129,-730.369 615.251,-739.016 615.857,-728.439 609.129,-730.369"/>
<text text-anchor="middle" x="623.5" y="-708.3" font-family="Times,serif" font-size="14.00">other</text>
</g>
<!-- rawtagp -->
<g id="node7" class="node"><title>rawtagp</title>
<ellipse fill="none" stroke="black" cx="574" cy="-526" rx="36" ry="36"/>
<text text-anchor="middle" x="574" y="-522.3" font-family="Times,serif" font-size="14.00">rawtagp</text>
</g>
<!-- tagp&#45;&gt;rawtagp -->
<g id="edge6" class="edge"><title>tagp&#45;&gt;rawtagp</title>
<path fill="none" stroke="black" d="M585.415,-614.04C583.708,-601.022 581.745,-586.057 579.934,-572.248"/>
<polygon fill="black" stroke="black" points="583.356,-571.425 578.586,-561.965 576.416,-572.336 583.356,-571.425"/>
<text text-anchor="middle" x="589" y="-584.3" font-family="Times,serif" font-size="14.00">&#39;{&#39;</text>
</g>
<!-- rawtag -->
<g id="node8" class="node"><title>rawtag</title>
<ellipse fill="none" stroke="black" cx="79" cy="-402" rx="36" ry="36"/>
<text text-anchor="middle" x="79" y="-398.3" font-family="Times,serif" font-size="14.00">rawtag</text>
</g>
<!-- rawtagp&#45;&gt;rawtag -->
<g id="edge8" class="edge"><title>rawtagp&#45;&gt;rawtag</title>
<path fill="none" stroke="black" d="M539.193,-516.421C451.413,-494.787 221.092,-438.021 123.607,-413.994"/>
<polygon fill="black" stroke="black" points="124.316,-410.564 113.769,-411.569 122.641,-417.361 124.316,-410.564"/>
<text text-anchor="middle" x="363" y="-460.3" font-family="Times,serif" font-size="14.00">&#39;{&#39;</text>
</g>
<!-- push -->
<g id="node9" class="node"><title>push</title>
<ellipse fill="none" stroke="black" cx="574" cy="-402" rx="36" ry="36"/>
<text text-anchor="middle" x="574" y="-398.3" font-family="Times,serif" font-size="14.00">push</text>
</g>
<!-- rawtagp&#45;&gt;push -->
<g id="edge9" class="edge"><title>rawtagp&#45;&gt;push</title>
<path fill="none" stroke="black" d="M574,-489.713C574,-476.814 574,-462.039 574,-448.383"/>
<polygon fill="black" stroke="black" points="577.5,-448.208 574,-438.208 570.5,-448.208 577.5,-448.208"/>
<text text-anchor="middle" x="580.5" y="-460.3" font-family="Times,serif" font-size="14.00">&#39;#&#39;</text>
</g>
<!-- pop -->
<g id="node10" class="node"><title>pop</title>
<ellipse fill="none" stroke="black" cx="749" cy="-402" rx="36" ry="36"/>
<text text-anchor="middle" x="749" y="-398.3" font-family="Times,serif" font-size="14.00">pop</text>
</g>
<!-- rawtagp&#45;&gt;pop -->
<g id="edge10" class="edge"><title>rawtagp&#45;&gt;pop</title>
<path fill="none" stroke="black" d="M603.291,-504.58C633.034,-483.845 679.201,-451.66 711.577,-429.089"/>
<polygon fill="black" stroke="black" points="713.703,-431.873 719.905,-423.283 709.7,-426.131 713.703,-431.873"/>
<text text-anchor="middle" x="675.5" y="-460.3" font-family="Times,serif" font-size="14.00">&#39;/&#39;</text>
</g>
<!-- tag -->
<g id="node11" class="node"><title>tag</title>
<ellipse fill="none" stroke="black" cx="288" cy="-402" rx="36" ry="36"/>
<text text-anchor="middle" x="288" y="-398.3" font-family="Times,serif" font-size="14.00">tag</text>
</g>
<!-- rawtagp&#45;&gt;tag -->
<g id="edge11" class="edge"><title>rawtagp&#45;&gt;tag</title>
<path fill="none" stroke="black" d="M541.192,-511.005C489.179,-488.818 387.817,-445.579 330.375,-421.076"/>
<polygon fill="black" stroke="black" points="331.436,-417.724 320.865,-417.019 328.689,-424.162 331.436,-417.724"/>
<text text-anchor="middle" x="463.5" y="-460.3" font-family="Times,serif" font-size="14.00">other</text>
</g>
<!-- rawtag&#45;&gt;rawtag -->
<g id="edge27" class="edge"><title>rawtag&#45;&gt;rawtag</title>
<path fill="none" stroke="black" d="M113.276,-413.622C124.279,-413.503 133,-409.629 133,-402 133,-396.994 129.244,-393.604 123.552,-391.832"/>
<polygon fill="black" stroke="black" points="123.667,-388.313 113.276,-390.378 122.687,-395.244 123.667,-388.313"/>
<text text-anchor="middle" x="147.5" y="-398.3" font-family="Times,serif" font-size="14.00">other</text>
</g>
<!-- xrawpp -->
<g id="node15" class="node"><title>xrawpp</title>
<ellipse fill="none" stroke="black" cx="129" cy="-278" rx="36" ry="36"/>
<text text-anchor="middle" x="129" y="-274.3" font-family="Times,serif" font-size="14.00">xrawpp</text>
</g>
<!-- rawtag&#45;&gt;xrawpp -->
<g id="edge26" class="edge"><title>rawtag&#45;&gt;xrawpp</title>
<path fill="none" stroke="black" d="M80.0129,-365.674C81.2684,-354.574 83.64,-342.485 88,-332 90.7008,-325.505 94.4133,-319.121 98.5088,-313.158"/>
<polygon fill="black" stroke="black" points="101.586,-314.883 104.71,-304.759 95.9544,-310.725 101.586,-314.883"/>
<text text-anchor="middle" x="94" y="-336.3" font-family="Times,serif" font-size="14.00">&#39;}&#39;</text>
</g>
<!-- push&#45;&gt;rval != 0 -->
<g id="edge14" class="edge"><title>push&#45;&gt;rval != 0</title>
<path fill="none" stroke="black" stroke-dasharray="5,2" d="M573.762,-365.813C575.083,-331.72 581.324,-279.769 605,-242 612.082,-230.703 620.734,-234.462 629,-224 635.131,-216.241 640.259,-207.037 644.442,-197.921"/>
<polygon fill="black" stroke="black" points="647.749,-199.089 648.46,-188.518 641.312,-196.338 647.749,-199.089"/>
<text text-anchor="middle" x="609.5" y="-274.3" font-family="Times,serif" font-size="14.00">&#39;.&#39;</text>
</g>
<!-- push&#45;&gt;push -->
<g id="edge12" class="edge"><title>push&#45;&gt;push</title>
<path fill="none" stroke="black" d="M608.276,-413.622C619.279,-413.503 628,-409.629 628,-402 628,-396.994 624.244,-393.604 618.552,-391.832"/>
<polygon fill="black" stroke="black" points="618.667,-388.313 608.276,-390.378 617.687,-395.244 618.667,-388.313"/>
<text text-anchor="middle" x="642.5" y="-398.3" font-family="Times,serif" font-size="14.00">other</text>
</g>
<!-- xpushp -->
<g id="node12" class="node"><title>xpushp</title>
<ellipse fill="none" stroke="black" cx="659" cy="-278" rx="36" ry="36"/>
<text text-anchor="middle" x="659" y="-274.3" font-family="Times,serif" font-size="14.00">xpushp</text>
</g>
<!-- push&#45;&gt;xpushp -->
<g id="edge13" class="edge"><title>push&#45;&gt;xpushp</title>
<path fill="none" stroke="black" d="M587.449,-368.586C593.05,-356.627 600.098,-343.259 608,-332 613.167,-324.638 619.352,-317.315 625.603,-310.566"/>
<polygon fill="black" stroke="black" points="628.521,-312.581 632.915,-302.941 623.468,-307.737 628.521,-312.581"/>
<text text-anchor="middle" x="614" y="-336.3" font-family="Times,serif" font-size="14.00">&#39;}&#39;</text>
</g>
<!-- pop&#45;&gt;rval != 0 -->
<g id="edge20" class="edge"><title>pop&#45;&gt;rval != 0</title>
<path fill="none" stroke="black" stroke-dasharray="5,2" d="M776.519,-378.444C819.035,-340.868 891.559,-264.055 849,-208 831.612,-185.098 755.278,-169.436 704.815,-161.371"/>
<polygon fill="black" stroke="black" points="705.2,-157.889 694.781,-159.812 704.125,-164.806 705.2,-157.889"/>
<text text-anchor="middle" x="865.5" y="-274.3" font-family="Times,serif" font-size="14.00">&#39;.&#39;</text>
</g>
<!-- pop&#45;&gt;pop -->
<g id="edge18" class="edge"><title>pop&#45;&gt;pop</title>
<path fill="none" stroke="black" d="M783.276,-413.622C794.279,-413.503 803,-409.629 803,-402 803,-396.994 799.244,-393.604 793.552,-391.832"/>
<polygon fill="black" stroke="black" points="793.667,-388.313 783.276,-390.378 792.687,-395.244 793.667,-388.313"/>
<text text-anchor="middle" x="817.5" y="-398.3" font-family="Times,serif" font-size="14.00">other</text>
</g>
<!-- xpopp -->
<g id="node13" class="node"><title>xpopp</title>
<ellipse fill="none" stroke="black" cx="781" cy="-278" rx="36" ry="36"/>
<text text-anchor="middle" x="781" y="-274.3" font-family="Times,serif" font-size="14.00">xpopp</text>
</g>
<!-- pop&#45;&gt;xpopp -->
<g id="edge19" class="edge"><title>pop&#45;&gt;xpopp</title>
<path fill="none" stroke="black" d="M745.371,-366.109C745.177,-355.032 745.979,-342.848 749,-332 750.478,-326.693 752.646,-321.387 755.17,-316.294"/>
<polygon fill="black" stroke="black" points="758.304,-317.857 760.023,-307.403 752.16,-314.503 758.304,-317.857"/>
<text text-anchor="middle" x="755" y="-336.3" font-family="Times,serif" font-size="14.00">&#39;}&#39;</text>
</g>
<!-- tag&#45;&gt;rval != 0 -->
<g id="edge33" class="edge"><title>tag&#45;&gt;rval != 0</title>
<path fill="none" stroke="black" stroke-dasharray="5,2" d="M282.123,-366.233C276.728,-320.931 275.736,-243.34 324,-208 329.818,-203.74 522.997,-174.95 613.307,-161.678"/>
<polygon fill="black" stroke="black" points="613.888,-165.13 623.274,-160.215 612.871,-158.204 613.888,-165.13"/>
<text text-anchor="middle" x="336" y="-274.3" font-family="Times,serif" font-size="14.00">tagsz &gt;= 1023</text>
</g>
<!-- tag&#45;&gt;tag -->
<g id="edge34" class="edge"><title>tag&#45;&gt;tag</title>
<path fill="none" stroke="black" d="M323.574,-407.795C333.957,-407.595 342,-405.663 342,-402 342,-399.653 338.699,-398.017 333.597,-397.092"/>
<polygon fill="black" stroke="black" points="333.844,-393.6 323.574,-396.205 333.227,-400.573 333.844,-393.6"/>
<text text-anchor="middle" x="356.5" y="-398.3" font-family="Times,serif" font-size="14.00">other</text>
</g>
<!-- tag&#45;&gt;tag -->
<g id="edge35" class="edge"><title>tag&#45;&gt;tag</title>
<path fill="none" stroke="black" d="M322.639,-412.654C346.49,-415.541 371,-411.99 371,-402 371,-393.415 352.899,-389.585 332.67,-390.51"/>
<polygon fill="black" stroke="black" points="332.314,-387.028 322.639,-391.346 332.895,-394.003 332.314,-387.028"/>
<text text-anchor="middle" x="410.5" y="-405.8" font-family="Times,serif" font-size="14.00">&#39;&amp;&#39;, &#39;&quot;&#39;, &#39;&lt;&#39;, &#39;&gt;&#39;</text>
<text text-anchor="middle" x="410.5" y="-390.8" font-family="Times,serif" font-size="14.00">(escape these)</text>
</g>
<!-- xtagp -->
<g id="node14" class="node"><title>xtagp</title>
<ellipse fill="none" stroke="black" cx="223" cy="-278" rx="36" ry="36"/>
<text text-anchor="middle" x="223" y="-274.3" font-family="Times,serif" font-size="14.00">xtagp</text>
</g>
<!-- tag&#45;&gt;xtagp -->
<g id="edge32" class="edge"><title>tag&#45;&gt;xtagp</title>
<path fill="none" stroke="black" d="M272.271,-369.241C266.347,-357.481 259.475,-344.074 253,-332 250.686,-327.685 248.227,-323.196 245.752,-318.738"/>
<polygon fill="black" stroke="black" points="248.628,-316.712 240.689,-309.696 242.521,-320.132 248.628,-316.712"/>
<text text-anchor="middle" x="267" y="-336.3" font-family="Times,serif" font-size="14.00">&#39;}&#39;</text>
</g>
<!-- xpushp&#45;&gt;html -->
<g id="edge15" class="edge"><title>xpushp&#45;&gt;html</title>
<path fill="none" stroke="black" d="M666.801,-313.386C674.459,-350.197 685,-410.413 685,-463 685,-651 685,-651 685,-651 685,-682.185 669.019,-713.677 653.552,-736.852"/>
<polygon fill="black" stroke="black" points="650.509,-735.098 647.683,-745.309 656.26,-739.088 650.509,-735.098"/>
<text text-anchor="middle" x="691" y="-522.3" font-family="Times,serif" font-size="14.00">&#39;}&#39;</text>
</g>
<!-- xpushp&#45;&gt;rval != 0 -->
<g id="edge17" class="edge"><title>xpushp&#45;&gt;rval != 0</title>
<path fill="none" stroke="black" stroke-dasharray="5,2" d="M659,-241.713C659,-228.814 659,-214.039 659,-200.383"/>
<polygon fill="black" stroke="black" points="662.5,-200.208 659,-190.208 655.5,-200.208 662.5,-200.208"/>
<text text-anchor="middle" x="699.5" y="-212.3" font-family="Times,serif" font-size="14.00">secsz &gt;= 1023</text>
</g>
<!-- xpushp&#45;&gt;push -->
<g id="edge16" class="edge"><title>xpushp&#45;&gt;push</title>
<path fill="none" stroke="black" d="M642.997,-310.378C636.39,-322.467 628.332,-336.196 620,-348 615.406,-354.509 610.157,-361.151 604.888,-367.433"/>
<polygon fill="black" stroke="black" points="602.112,-365.294 598.252,-375.161 607.422,-369.855 602.112,-365.294"/>
<text text-anchor="middle" x="643.5" y="-336.3" font-family="Times,serif" font-size="14.00">other</text>
</g>
<!-- xpopp&#45;&gt;html -->
<g id="edge21" class="edge"><title>xpopp&#45;&gt;html</title>
<path fill="none" stroke="black" d="M807.746,-302.284C830.664,-324.944 860,-361.636 860,-401 860,-651 860,-651 860,-651 860,-735.279 739.47,-761.415 671.049,-769.463"/>
<polygon fill="black" stroke="black" points="670.509,-766.001 660.947,-770.564 671.268,-772.959 670.509,-766.001"/>
<text text-anchor="middle" x="866" y="-522.3" font-family="Times,serif" font-size="14.00">&#39;}&#39;</text>
</g>
<!-- xpopp&#45;&gt;rval != 0 -->
<g id="edge23" class="edge"><title>xpopp&#45;&gt;rval != 0</title>
<path fill="none" stroke="black" stroke-dasharray="5,2" d="M767.751,-244.173C761.735,-231.896 753.757,-218.416 744,-208 731.693,-194.862 715.441,-183.683 700.447,-175.027"/>
<polygon fill="black" stroke="black" points="701.763,-171.755 691.319,-169.968 698.369,-177.877 701.763,-171.755"/>
<text text-anchor="middle" x="800" y="-212.3" font-family="Times,serif" font-size="14.00">pop != last push</text>
</g>
<!-- xpopp&#45;&gt;pop -->
<g id="edge22" class="edge"><title>xpopp&#45;&gt;pop</title>
<path fill="none" stroke="black" d="M772.023,-313.225C768.44,-326.885 764.271,-342.781 760.472,-357.262"/>
<polygon fill="black" stroke="black" points="757.066,-356.455 757.914,-367.016 763.836,-358.231 757.066,-356.455"/>
<text text-anchor="middle" x="780.5" y="-336.3" font-family="Times,serif" font-size="14.00">other</text>
</g>
<!-- xtagp&#45;&gt;html -->
<g id="edge24" class="edge"><title>xtagp&#45;&gt;html</title>
<path fill="none" stroke="black" d="M209.196,-311.496C200.153,-335.714 190,-369.843 190,-401 190,-651 190,-651 190,-651 190,-731.149 467.232,-761.081 579.056,-769.895"/>
<polygon fill="black" stroke="black" points="578.794,-773.385 589.032,-770.659 579.329,-766.405 578.794,-773.385"/>
<text text-anchor="middle" x="196" y="-522.3" font-family="Times,serif" font-size="14.00">&#39;}&#39;</text>
</g>
<!-- xtagp&#45;&gt;tag -->
<g id="edge25" class="edge"><title>xtagp&#45;&gt;tag</title>
<path fill="none" stroke="black" d="M217.867,-313.66C217.619,-325.075 218.979,-337.52 224,-348 229.558,-359.6 239.008,-369.549 248.965,-377.59"/>
<polygon fill="black" stroke="black" points="246.898,-380.415 256.994,-383.625 251.103,-374.819 246.898,-380.415"/>
<text text-anchor="middle" x="238.5" y="-336.3" font-family="Times,serif" font-size="14.00">other</text>
</g>
<!-- xrawpp&#45;&gt;rawtag -->
<g id="edge29" class="edge"><title>xrawpp&#45;&gt;rawtag</title>
<path fill="none" stroke="black" d="M115.564,-311.784C109.618,-326.291 102.554,-343.529 96.2266,-358.967"/>
<polygon fill="black" stroke="black" points="92.9528,-357.726 92.3991,-368.306 99.4299,-360.38 92.9528,-357.726"/>
<text text-anchor="middle" x="121.5" y="-336.3" font-family="Times,serif" font-size="14.00">other</text>
</g>
<!-- xrawp -->
<g id="node16" class="node"><title>xrawp</title>
<ellipse fill="none" stroke="black" cx="46" cy="-154" rx="36" ry="36"/>
<text text-anchor="middle" x="46" y="-150.3" font-family="Times,serif" font-size="14.00">xrawp</text>
</g>
<!-- xrawpp&#45;&gt;xrawp -->
<g id="edge28" class="edge"><title>xrawpp&#45;&gt;xrawp</title>
<path fill="none" stroke="black" d="M109.119,-247.778C97.9091,-231.3 83.7787,-210.53 71.7311,-192.822"/>
<polygon fill="black" stroke="black" points="74.5248,-190.706 66.006,-184.406 68.7372,-194.643 74.5248,-190.706"/>
<text text-anchor="middle" x="99" y="-212.3" font-family="Times,serif" font-size="14.00">&#39;}&#39;</text>
</g>
<!-- xrawp&#45;&gt;html -->
<g id="edge30" class="edge"><title>xrawp&#45;&gt;html</title>
<path fill="none" stroke="black" d="M27.5551,-185.407C14.7575,-209.397 0,-244.178 0,-277 0,-651 0,-651 0,-651 0,-768.832 433.345,-775.021 578.362,-773.793"/>
<polygon fill="black" stroke="black" points="578.732,-777.29 588.696,-773.688 578.661,-770.29 578.732,-777.29"/>
<text text-anchor="middle" x="6" y="-460.3" font-family="Times,serif" font-size="14.00">&#39;}&#39;</text>
</g>
<!-- xrawp&#45;&gt;rawtag -->
<g id="edge31" class="edge"><title>xrawp&#45;&gt;rawtag</title>
<path fill="none" stroke="black" d="M45.8562,-190.286C46.2299,-222.662 48.0741,-271.849 55,-314 57.3713,-328.432 61.2042,-343.906 65.1175,-357.744"/>
<polygon fill="black" stroke="black" points="61.8008,-358.873 67.9614,-367.492 68.5207,-356.912 61.8008,-358.873"/>
<text text-anchor="middle" x="69.5" y="-274.3" font-family="Times,serif" font-size="14.00">other</text>
</g>
<!-- allnodes -->
<g id="node17" class="node"><title>allnodes</title>
<ellipse fill="none" stroke="black" cx="432" cy="-278" rx="36" ry="36"/>
<text text-anchor="middle" x="432" y="-274.3" font-family="Times,serif" font-size="14.00">allnodes</text>
</g>
<!-- allnodes&#45;&gt;rval != 0 -->
<g id="edge36" class="edge"><title>allnodes&#45;&gt;rval != 0</title>
<path fill="none" stroke="black" stroke-dasharray="5,2" d="M410.978,-248.558C403.774,-235.141 399.62,-219.577 409,-208 434.187,-176.914 547.965,-163.323 613.009,-158.006"/>
<polygon fill="black" stroke="black" points="613.313,-161.493 623.009,-157.222 612.766,-154.514 613.313,-161.493"/>
<text text-anchor="middle" x="519" y="-212.3" font-family="Times,serif" font-size="14.00">char in [1 &#45; 8, 11, 12, 14 &#45; 31, 127&#45;159]</text>
</g>
<!-- rval == 0 -->
<g id="node18" class="node"><title>rval == 0</title>
<ellipse fill="none" stroke="black" cx="369" cy="-154" rx="36" ry="36"/>
<text text-anchor="middle" x="369" y="-150.3" font-family="Times,serif" font-size="14.00">rval == 0</text>
</g>
<!-- allnodes&#45;&gt;rval == 0 -->
<g id="edge37" class="edge"><title>allnodes&#45;&gt;rval == 0</title>
<path fill="none" stroke="black" d="M403.739,-255.283C396.846,-250.538 389.338,-245.803 382,-242 361.03,-231.132 345.581,-243.323 332,-224 323.935,-212.525 328.383,-199.09 336.567,-187.139"/>
<polygon fill="black" stroke="black" points="339.394,-189.204 342.722,-179.146 333.848,-184.934 339.394,-189.204"/>
<text text-anchor="middle" x="359" y="-212.3" font-family="Times,serif" font-size="14.00">char == 0</text>
</g>
<!-- rval == 0&#45;&gt;end -->
<g id="edge38" class="edge"><title>rval == 0&#45;&gt;end</title>
<path fill="none" stroke="black" d="M400.406,-135.5C434.343,-116.59 488.651,-86.3286 526.643,-65.1591"/>
<polygon fill="black" stroke="black" points="528.415,-68.1784 535.447,-60.2535 525.008,-62.0636 528.415,-68.1784"/>
</g>
</g>
</svg>
