<?xml version="1.0" encoding="UTF-8" standalone="no"?>
<!DOCTYPE svg PUBLIC "-//W3C//DTD SVG 1.1//EN"
 "http://www.w3.org/Graphics/SVG/1.1/DTD/svg11.dtd">
<!-- Generated by graphviz version 2.34.0 (20130907.0228)
 -->
<!-- Title: State Pages: 1 -->
<svg width="385pt" height="360pt"
 viewBox="0.00 0.00 384.79 360.00" xmlns="http://www.w3.org/2000/svg" xmlns:xlink="http://www.w3.org/1999/xlink">
<g id="graph0" class="graph" transform="scale(0.339623 0.339623) rotate(0) translate(4 1056)">
<title>State</title>
<polygon fill="white" stroke="white" points="-4,4 -4,-1056 1129,-1056 1129,4 -4,4"/>
<!-- start -->
<g id="node1" class="node"><title>start</title>
<ellipse fill="none" stroke="black" cx="735" cy="-1012" rx="36" ry="36"/>
<ellipse fill="none" stroke="black" cx="735" cy="-1012" rx="40" ry="40"/>
<text text-anchor="middle" x="735" y="-1008.3" font-family="Times,serif" font-size="14.00">start</text>
</g>
<!-- parsejson -->
<g id="node3" class="node"><title>parsejson</title>
<ellipse fill="none" stroke="black" cx="735" cy="-898" rx="36" ry="36"/>
<text text-anchor="middle" x="735" y="-894.3" font-family="Times,serif" font-size="14.00">parsejson</text>
</g>
<!-- start&#45;&gt;parsejson -->
<g id="edge1" class="edge"><title>start&#45;&gt;parsejson</title>
<path fill="none" stroke="black" d="M735,-971.828C735,-962.936 735,-953.421 735,-944.299"/>
<polygon fill="black" stroke="black" points="738.5,-944.221 735,-934.221 731.5,-944.221 738.5,-944.221"/>
</g>
<!-- end -->
<g id="node2" class="node"><title>end</title>
<ellipse fill="none" stroke="black" cx="925" cy="-40" rx="36" ry="36"/>
<ellipse fill="none" stroke="black" cx="925" cy="-40" rx="40" ry="40"/>
<text text-anchor="middle" x="925" y="-36.3" font-family="Times,serif" font-size="14.00">end</text>
</g>
<!-- html -->
<g id="node4" class="node"><title>html</title>
<ellipse fill="none" stroke="black" cx="564" cy="-774" rx="36" ry="36"/>
<text text-anchor="middle" x="564" y="-770.3" font-family="Times,serif" font-size="14.00">html</text>
</g>
<!-- parsejson&#45;&gt;html -->
<g id="edge2" class="edge"><title>parsejson&#45;&gt;html</title>
<path fill="none" stroke="black" d="M705.992,-876.304C677.163,-855.736 632.822,-824.101 601.37,-801.662"/>
<polygon fill="black" stroke="black" points="603.038,-798.552 592.864,-795.593 598.972,-804.25 603.038,-798.552"/>
<text text-anchor="middle" x="673.5" y="-832.3" font-family="Times,serif" font-size="14.00">other</text>
</g>
<!-- rval != 0 -->
<g id="node5" class="node"><title>rval != 0</title>
<ellipse fill="none" stroke="black" cx="814" cy="-154" rx="36" ry="36"/>
<text text-anchor="middle" x="814" y="-150.3" font-family="Times,serif" font-size="14.00">rval != 0</text>
</g>
<!-- parsejson&#45;&gt;rval != 0 -->
<g id="edge3" class="edge"><title>parsejson&#45;&gt;rval != 0</title>
<path fill="none" stroke="black" stroke-dasharray="5,2" d="M761.746,-873.716C784.664,-851.056 814,-814.364 814,-775 814,-775 814,-775 814,-277 814,-251.653 814,-223.343 814,-200.38"/>
<polygon fill="black" stroke="black" points="817.5,-200.236 814,-190.236 810.5,-200.236 817.5,-200.236"/>
<text text-anchor="middle" x="914" y="-522.3" font-family="Times,serif" font-size="14.00">21 + (kv pairs * 4) &gt;= UINT_MAX</text>
</g>
<!-- html&#45;&gt;html -->
<g id="edge5" class="edge"><title>html&#45;&gt;html</title>
<path fill="none" stroke="black" d="M598.276,-785.622C609.279,-785.503 618,-781.629 618,-774 618,-768.994 614.244,-765.604 608.552,-763.832"/>
<polygon fill="black" stroke="black" points="608.667,-760.313 598.276,-762.378 607.687,-767.244 608.667,-760.313"/>
<text text-anchor="middle" x="632.5" y="-770.3" font-family="Times,serif" font-size="14.00">other</text>
</g>
<!-- tagp -->
<g id="node6" class="node"><title>tagp</title>
<ellipse fill="none" stroke="black" cx="512" cy="-650" rx="36" ry="36"/>
<text text-anchor="middle" x="512" y="-646.3" font-family="Times,serif" font-size="14.00">tagp</text>
</g>
<!-- html&#45;&gt;tagp -->
<g id="edge4" class="edge"><title>html&#45;&gt;tagp</title>
<path fill="none" stroke="black" d="M554.732,-739.146C551.223,-727.789 546.882,-715.176 542,-704 539.962,-699.336 537.63,-694.551 535.186,-689.857"/>
<polygon fill="black" stroke="black" points="538.231,-688.129 530.397,-680.996 532.073,-691.458 538.231,-688.129"/>
<text text-anchor="middle" x="553" y="-708.3" font-family="Times,serif" font-size="14.00">&#39;{&#39;</text>
</g>
<!-- rval != 0&#45;&gt;end -->
<g id="edge36" class="edge"><title>rval != 0&#45;&gt;end</title>
<path fill="none" stroke="black" d="M838.911,-127.865C853.877,-112.764 873.158,-93.3088 889.679,-76.6396"/>
<polygon fill="black" stroke="black" points="892.496,-78.7689 897.049,-69.2024 887.524,-73.8414 892.496,-78.7689"/>
</g>
<!-- tagp&#45;&gt;html -->
<g id="edge7" class="edge"><title>tagp&#45;&gt;html</title>
<path fill="none" stroke="black" d="M504.7,-685.401C503.779,-696.798 504.45,-709.296 509,-720 513.085,-729.61 519.862,-738.323 527.287,-745.782"/>
<polygon fill="black" stroke="black" points="525.144,-748.568 534.853,-752.809 529.908,-743.439 525.144,-748.568"/>
<text text-anchor="middle" x="523.5" y="-708.3" font-family="Times,serif" font-size="14.00">other</text>
</g>
<!-- rawtagp -->
<g id="node7" class="node"><title>rawtagp</title>
<ellipse fill="none" stroke="black" cx="488" cy="-526" rx="36" ry="36"/>
<text text-anchor="middle" x="488" y="-522.3" font-family="Times,serif" font-size="14.00">rawtagp</text>
</g>
<!-- tagp&#45;&gt;rawtagp -->
<g id="edge6" class="edge"><title>tagp&#45;&gt;rawtagp</title>
<path fill="none" stroke="black" d="M505.187,-614.366C502.577,-601.101 499.563,-585.777 496.794,-571.701"/>
<polygon fill="black" stroke="black" points="500.195,-570.857 494.83,-561.721 493.326,-572.208 500.195,-570.857"/>
<text text-anchor="middle" x="508" y="-584.3" font-family="Times,serif" font-size="14.00">&#39;{&#39;</text>
</g>
<!-- rawtag -->
<g id="node8" class="node"><title>rawtag</title>
<ellipse fill="none" stroke="black" cx="79" cy="-402" rx="36" ry="36"/>
<text text-anchor="middle" x="79" y="-398.3" font-family="Times,serif" font-size="14.00">rawtag</text>
</g>
<!-- rawtagp&#45;&gt;rawtag -->
<g id="edge8" class="edge"><title>rawtagp&#45;&gt;rawtag</title>
<path fill="none" stroke="black" d="M453.481,-514.703C379.346,-492.59 205.004,-440.586 123.042,-416.137"/>
<polygon fill="black" stroke="black" points="123.865,-412.73 113.282,-413.226 121.864,-419.438 123.865,-412.73"/>
<text text-anchor="middle" x="314" y="-460.3" font-family="Times,serif" font-size="14.00">&#39;{&#39;</text>
</g>
<!-- pushsec -->
<g id="node9" class="node"><title>pushsec</title>
<ellipse fill="none" stroke="black" cx="488" cy="-402" rx="36" ry="36"/>
<text text-anchor="middle" x="488" y="-398.3" font-family="Times,serif" font-size="14.00">pushsec</text>
</g>
<!-- rawtagp&#45;&gt;pushsec -->
<g id="edge9" class="edge"><title>rawtagp&#45;&gt;pushsec</title>
<path fill="none" stroke="black" d="M488,-489.713C488,-476.814 488,-462.039 488,-448.383"/>
<polygon fill="black" stroke="black" points="491.5,-448.208 488,-438.208 484.5,-448.208 491.5,-448.208"/>
<text text-anchor="middle" x="494.5" y="-460.3" font-family="Times,serif" font-size="14.00">&#39;#&#39;</text>
</g>
<!-- popsec -->
<g id="node10" class="node"><title>popsec</title>
<ellipse fill="none" stroke="black" cx="663" cy="-402" rx="36" ry="36"/>
<text text-anchor="middle" x="663" y="-398.3" font-family="Times,serif" font-size="14.00">popsec</text>
</g>
<!-- rawtagp&#45;&gt;popsec -->
<g id="edge10" class="edge"><title>rawtagp&#45;&gt;popsec</title>
<path fill="none" stroke="black" d="M517.291,-504.58C547.034,-483.845 593.201,-451.66 625.577,-429.089"/>
<polygon fill="black" stroke="black" points="627.703,-431.873 633.905,-423.283 623.7,-426.131 627.703,-431.873"/>
<text text-anchor="middle" x="589.5" y="-460.3" font-family="Times,serif" font-size="14.00">&#39;/&#39;</text>
</g>
<!-- tag -->
<g id="node11" class="node"><title>tag</title>
<ellipse fill="none" stroke="black" cx="254" cy="-402" rx="36" ry="36"/>
<text text-anchor="middle" x="254" y="-398.3" font-family="Times,serif" font-size="14.00">tag</text>
</g>
<!-- rawtagp&#45;&gt;tag -->
<g id="edge11" class="edge"><title>rawtagp&#45;&gt;tag</title>
<path fill="none" stroke="black" d="M456.442,-508.547C414.66,-486.763 340.913,-448.314 294.901,-424.324"/>
<polygon fill="black" stroke="black" points="296.291,-421.102 285.806,-419.582 293.055,-427.309 296.291,-421.102"/>
<text text-anchor="middle" x="400.5" y="-460.3" font-family="Times,serif" font-size="14.00">other</text>
</g>
<!-- rawtag&#45;&gt;rawtag -->
<g id="edge24" class="edge"><title>rawtag&#45;&gt;rawtag</title>
<path fill="none" stroke="black" d="M113.276,-413.622C124.279,-413.503 133,-409.629 133,-402 133,-396.994 129.244,-393.604 123.552,-391.832"/>
<polygon fill="black" stroke="black" points="123.667,-388.313 113.276,-390.378 122.687,-395.244 123.667,-388.313"/>
<text text-anchor="middle" x="147.5" y="-398.3" font-family="Times,serif" font-size="14.00">other</text>
</g>
<!-- xrawpp -->
<g id="node15" class="node"><title>xrawpp</title>
<ellipse fill="none" stroke="black" cx="64" cy="-278" rx="36" ry="36"/>
<text text-anchor="middle" x="64" y="-274.3" font-family="Times,serif" font-size="14.00">xrawpp</text>
</g>
<!-- rawtag&#45;&gt;xrawpp -->
<g id="edge23" class="edge"><title>rawtag&#45;&gt;xrawpp</title>
<path fill="none" stroke="black" d="M59.5244,-371.539C55.6002,-364.148 52.0527,-356.028 50,-348 47.8454,-339.573 47.9701,-330.501 49.2736,-321.791"/>
<polygon fill="black" stroke="black" points="52.7435,-322.289 51.2793,-311.796 45.8803,-320.912 52.7435,-322.289"/>
<text text-anchor="middle" x="56" y="-336.3" font-family="Times,serif" font-size="14.00">&#39;}&#39;</text>
</g>
<!-- pushsec&#45;&gt;pushsec -->
<g id="edge12" class="edge"><title>pushsec&#45;&gt;pushsec</title>
<path fill="none" stroke="black" d="M522.276,-413.622C533.279,-413.503 542,-409.629 542,-402 542,-396.994 538.244,-393.604 532.552,-391.832"/>
<polygon fill="black" stroke="black" points="532.667,-388.313 522.276,-390.378 531.687,-395.244 532.667,-388.313"/>
<text text-anchor="middle" x="556.5" y="-398.3" font-family="Times,serif" font-size="14.00">other</text>
</g>
<!-- xpushsecp -->
<g id="node12" class="node"><title>xpushsecp</title>
<ellipse fill="none" stroke="black" cx="523" cy="-278" rx="36" ry="36"/>
<text text-anchor="middle" x="523" y="-274.3" font-family="Times,serif" font-size="14.00">xpushsecp</text>
</g>
<!-- pushsec&#45;&gt;xpushsecp -->
<g id="edge13" class="edge"><title>pushsec&#45;&gt;xpushsecp</title>
<path fill="none" stroke="black" d="M484.794,-366.032C484.756,-354.951 485.753,-342.783 489,-332 490.696,-326.367 493.181,-320.76 496.049,-315.418"/>
<polygon fill="black" stroke="black" points="499.113,-317.112 501.165,-306.718 493.079,-313.564 499.113,-317.112"/>
<text text-anchor="middle" x="495" y="-336.3" font-family="Times,serif" font-size="14.00">&#39;}&#39;</text>
</g>
<!-- popsec&#45;&gt;popsec -->
<g id="edge16" class="edge"><title>popsec&#45;&gt;popsec</title>
<path fill="none" stroke="black" d="M697.276,-413.622C708.279,-413.503 717,-409.629 717,-402 717,-396.994 713.244,-393.604 707.552,-391.832"/>
<polygon fill="black" stroke="black" points="707.667,-388.313 697.276,-390.378 706.687,-395.244 707.667,-388.313"/>
<text text-anchor="middle" x="731.5" y="-398.3" font-family="Times,serif" font-size="14.00">other</text>
</g>
<!-- xpopsecp -->
<g id="node13" class="node"><title>xpopsecp</title>
<ellipse fill="none" stroke="black" cx="707" cy="-278" rx="36" ry="36"/>
<text text-anchor="middle" x="707" y="-274.3" font-family="Times,serif" font-size="14.00">xpopsecp</text>
</g>
<!-- popsec&#45;&gt;xpopsecp -->
<g id="edge17" class="edge"><title>popsec&#45;&gt;xpopsecp</title>
<path fill="none" stroke="black" d="M663.132,-365.825C664.073,-354.733 666.063,-342.611 670,-332 672.203,-326.062 675.233,-320.167 678.618,-314.583"/>
<polygon fill="black" stroke="black" points="681.619,-316.39 684.162,-306.105 675.76,-312.559 681.619,-316.39"/>
<text text-anchor="middle" x="676" y="-336.3" font-family="Times,serif" font-size="14.00">&#39;}&#39;</text>
</g>
<!-- tag&#45;&gt;rval != 0 -->
<g id="edge30" class="edge"><title>tag&#45;&gt;rval != 0</title>
<path fill="none" stroke="black" stroke-dasharray="5,2" d="M272.598,-370.849C296.793,-334.328 342.588,-273.764 398,-242 518.687,-172.817 687.241,-158.349 767.699,-155.528"/>
<polygon fill="black" stroke="black" points="768.102,-159.017 777.991,-155.214 767.889,-152.02 768.102,-159.017"/>
<text text-anchor="middle" x="438" y="-274.3" font-family="Times,serif" font-size="14.00">tagsz &gt;= 1023</text>
</g>
<!-- tag&#45;&gt;tag -->
<g id="edge31" class="edge"><title>tag&#45;&gt;tag</title>
<path fill="none" stroke="black" d="M289.574,-407.795C299.957,-407.595 308,-405.663 308,-402 308,-399.653 304.699,-398.017 299.597,-397.092"/>
<polygon fill="black" stroke="black" points="299.844,-393.6 289.574,-396.205 299.227,-400.573 299.844,-393.6"/>
<text text-anchor="middle" x="322.5" y="-398.3" font-family="Times,serif" font-size="14.00">other</text>
</g>
<!-- tag&#45;&gt;tag -->
<g id="edge32" class="edge"><title>tag&#45;&gt;tag</title>
<path fill="none" stroke="black" d="M288.639,-412.654C312.49,-415.541 337,-411.99 337,-402 337,-393.415 318.899,-389.585 298.67,-390.51"/>
<polygon fill="black" stroke="black" points="298.314,-387.028 288.639,-391.346 298.895,-394.003 298.314,-387.028"/>
<text text-anchor="middle" x="376.5" y="-405.8" font-family="Times,serif" font-size="14.00">&#39;&amp;&#39;, &#39;&quot;&#39;, &#39;&lt;&#39;, &#39;&gt;&#39;</text>
<text text-anchor="middle" x="376.5" y="-390.8" font-family="Times,serif" font-size="14.00">(escape these)</text>
</g>
<!-- xtagp -->
<g id="node14" class="node"><title>xtagp</title>
<ellipse fill="none" stroke="black" cx="223" cy="-278" rx="36" ry="36"/>
<text text-anchor="middle" x="223" y="-274.3" font-family="Times,serif" font-size="14.00">xtagp</text>
</g>
<!-- tag&#45;&gt;xtagp -->
<g id="edge29" class="edge"><title>tag&#45;&gt;xtagp</title>
<path fill="none" stroke="black" d="M256.846,-365.781C256.845,-354.8 255.916,-342.753 253,-332 251.651,-327.025 249.728,-322.023 247.498,-317.185"/>
<polygon fill="black" stroke="black" points="250.55,-315.464 242.903,-308.132 244.308,-318.633 250.55,-315.464"/>
<text text-anchor="middle" x="262" y="-336.3" font-family="Times,serif" font-size="14.00">&#39;}&#39;</text>
</g>
<!-- xpushsecp&#45;&gt;html -->
<g id="edge14" class="edge"><title>xpushsecp&#45;&gt;html</title>
<path fill="none" stroke="black" d="M549.155,-302.924C571.139,-325.756 599,-362.321 599,-401 599,-651 599,-651 599,-651 599,-678.475 590.697,-708.128 582.179,-731.319"/>
<polygon fill="black" stroke="black" points="578.842,-730.247 578.539,-740.837 585.38,-732.747 578.842,-730.247"/>
<text text-anchor="middle" x="605" y="-522.3" font-family="Times,serif" font-size="14.00">&#39;}&#39;</text>
</g>
<!-- xpushsecp&#45;&gt;pushsec -->
<g id="edge15" class="edge"><title>xpushsecp&#45;&gt;pushsec</title>
<path fill="none" stroke="black" d="M513.303,-312.802C509.364,-326.53 504.763,-342.569 500.572,-357.177"/>
<polygon fill="black" stroke="black" points="497.143,-356.439 497.749,-367.016 503.871,-358.369 497.143,-356.439"/>
<text text-anchor="middle" x="522.5" y="-336.3" font-family="Times,serif" font-size="14.00">other</text>
</g>
<!-- xpopsecp&#45;&gt;html -->
<g id="edge18" class="edge"><title>xpopsecp&#45;&gt;html</title>
<path fill="none" stroke="black" d="M727.619,-307.625C738.052,-323.887 749.622,-345.118 755,-366 762.981,-396.989 762.872,-406.983 755,-438 724.547,-557.988 638.44,-679.414 592.964,-737.603"/>
<polygon fill="black" stroke="black" points="590.005,-735.702 586.56,-745.722 595.501,-740.037 590.005,-735.702"/>
<text text-anchor="middle" x="744" y="-522.3" font-family="Times,serif" font-size="14.00">&#39;}&#39;</text>
</g>
<!-- xpopsecp&#45;&gt;rval != 0 -->
<g id="edge20" class="edge"><title>xpopsecp&#45;&gt;rval != 0</title>
<path fill="none" stroke="black" stroke-dasharray="5,2" d="M701.757,-242.242C701.676,-230.566 703.58,-217.984 710,-208 723.354,-187.232 747.555,-174.228 769.252,-166.301"/>
<polygon fill="black" stroke="black" points="770.645,-169.524 778.997,-163.006 768.403,-162.893 770.645,-169.524"/>
<text text-anchor="middle" x="755" y="-212.3" font-family="Times,serif" font-size="14.00">pop != last push</text>
</g>
<!-- xpopsecp&#45;&gt;popsec -->
<g id="edge19" class="edge"><title>xpopsecp&#45;&gt;popsec</title>
<path fill="none" stroke="black" d="M695.083,-312.041C689.946,-326.285 683.873,-343.124 678.401,-358.298"/>
<polygon fill="black" stroke="black" points="675.007,-357.391 674.907,-367.985 681.592,-359.766 675.007,-357.391"/>
<text text-anchor="middle" x="701.5" y="-336.3" font-family="Times,serif" font-size="14.00">other</text>
</g>
<!-- xtagp&#45;&gt;html -->
<g id="edge21" class="edge"><title>xtagp&#45;&gt;html</title>
<path fill="none" stroke="black" d="M209.196,-311.496C200.153,-335.714 190,-369.843 190,-401 190,-651 190,-651 190,-651 190,-719.272 418.1,-755.316 518.028,-767.831"/>
<polygon fill="black" stroke="black" points="517.787,-771.327 528.139,-769.071 518.64,-764.38 517.787,-771.327"/>
<text text-anchor="middle" x="196" y="-522.3" font-family="Times,serif" font-size="14.00">&#39;}&#39;</text>
</g>
<!-- xtagp&#45;&gt;tag -->
<g id="edge22" class="edge"><title>xtagp&#45;&gt;tag</title>
<path fill="none" stroke="black" d="M220.154,-314.219C220.155,-325.2 221.084,-337.247 224,-348 225.349,-352.975 227.272,-357.977 229.502,-362.815"/>
<polygon fill="black" stroke="black" points="226.45,-364.536 234.097,-371.868 232.692,-361.367 226.45,-364.536"/>
<text text-anchor="middle" x="238.5" y="-336.3" font-family="Times,serif" font-size="14.00">other</text>
</g>
<!-- xrawpp&#45;&gt;rawtag -->
<g id="edge26" class="edge"><title>xrawpp&#45;&gt;rawtag</title>
<path fill="none" stroke="black" d="M68.299,-313.965C69.8996,-326.983 71.7396,-341.948 73.4373,-355.757"/>
<polygon fill="black" stroke="black" points="70.0074,-356.542 74.7016,-366.04 76.955,-355.687 70.0074,-356.542"/>
<text text-anchor="middle" x="87.5" y="-336.3" font-family="Times,serif" font-size="14.00">other</text>
</g>
<!-- xrawp -->
<g id="node16" class="node"><title>xrawp</title>
<ellipse fill="none" stroke="black" cx="64" cy="-154" rx="36" ry="36"/>
<text text-anchor="middle" x="64" y="-150.3" font-family="Times,serif" font-size="14.00">xrawp</text>
</g>
<!-- xrawpp&#45;&gt;xrawp -->
<g id="edge25" class="edge"><title>xrawpp&#45;&gt;xrawp</title>
<path fill="none" stroke="black" d="M64,-241.713C64,-228.814 64,-214.039 64,-200.383"/>
<polygon fill="black" stroke="black" points="67.5001,-200.208 64,-190.208 60.5001,-200.208 67.5001,-200.208"/>
<text text-anchor="middle" x="70" y="-212.3" font-family="Times,serif" font-size="14.00">&#39;}&#39;</text>
</g>
<!-- xrawp&#45;&gt;html -->
<g id="edge27" class="edge"><title>xrawp&#45;&gt;html</title>
<path fill="none" stroke="black" d="M40.5322,-181.508C22.2666,-204.928 0,-240.884 0,-277 0,-651 0,-651 0,-651 0,-756.693 383.156,-771.037 517.851,-772.814"/>
<polygon fill="black" stroke="black" points="517.822,-776.313 527.861,-772.928 517.902,-769.314 517.822,-776.313"/>
<text text-anchor="middle" x="6" y="-460.3" font-family="Times,serif" font-size="14.00">&#39;}&#39;</text>
</g>
<!-- xrawp&#45;&gt;rawtag -->
<g id="edge28" class="edge"><title>xrawp&#45;&gt;rawtag</title>
<path fill="none" stroke="black" d="M83.8136,-184.591C93.4737,-200.799 104.055,-221.677 109,-242 109.217,-242.891 112.915,-323.914 106,-348 104.731,-352.418 103.088,-356.903 101.237,-361.297"/>
<polygon fill="black" stroke="black" points="97.9079,-360.161 96.923,-370.71 104.271,-363.078 97.9079,-360.161"/>
<text text-anchor="middle" x="125.5" y="-274.3" font-family="Times,serif" font-size="14.00">other</text>
</g>
<!-- allnodes -->
<g id="node17" class="node"><title>allnodes</title>
<ellipse fill="none" stroke="black" cx="984" cy="-278" rx="36" ry="36"/>
<text text-anchor="middle" x="984" y="-274.3" font-family="Times,serif" font-size="14.00">allnodes</text>
</g>
<!-- allnodes&#45;&gt;rval != 0 -->
<g id="edge33" class="edge"><title>allnodes&#45;&gt;rval != 0</title>
<path fill="none" stroke="black" stroke-dasharray="5,2" d="M948.531,-271.55C917.461,-265.093 872.881,-251.52 844,-224 836.624,-216.971 830.958,-207.82 826.644,-198.492"/>
<polygon fill="black" stroke="black" points="829.841,-197.066 822.768,-189.178 823.378,-199.755 829.841,-197.066"/>
<text text-anchor="middle" x="954" y="-212.3" font-family="Times,serif" font-size="14.00">char in [1 &#45; 8, 11, 12, 14 &#45; 31, 127&#45;159]</text>
</g>
<!-- rval == 0 -->
<g id="node18" class="node"><title>rval == 0</title>
<ellipse fill="none" stroke="black" cx="997" cy="-154" rx="36" ry="36"/>
<text text-anchor="middle" x="997" y="-150.3" font-family="Times,serif" font-size="14.00">rval == 0</text>
</g>
<!-- allnodes&#45;&gt;rval == 0 -->
<g id="edge34" class="edge"><title>allnodes&#45;&gt;rval == 0</title>
<path fill="none" stroke="black" d="M1018.01,-264.996C1036.34,-256.578 1057.34,-243.328 1068,-224 1078.94,-204.157 1059.78,-186.452 1038.63,-173.946"/>
<polygon fill="black" stroke="black" points="1040.29,-170.863 1029.84,-169.081 1036.89,-176.987 1040.29,-170.863"/>
<text text-anchor="middle" x="1098" y="-212.3" font-family="Times,serif" font-size="14.00">char == 0</text>
</g>
<!-- rval == 0&#45;&gt;end -->
<g id="edge35" class="edge"><title>rval == 0&#45;&gt;end</title>
<path fill="none" stroke="black" d="M977.894,-123.28C969.897,-110.84 960.462,-96.1632 951.791,-82.6747"/>
<polygon fill="black" stroke="black" points="954.578,-80.5371 946.226,-74.018 948.689,-84.3225 954.578,-80.5371"/>
</g>
</g>
</svg>
